<svg width="72" height="30" viewBox="0 0 72 30" fill="none" xmlns="http://www.w3.org/2000/svg">
<g clip-path="url(#clip0_4691_68238)">
<path d="M11.1513 23.3536C10.612 24.8073 10.1071 26.2445 9.63893 27.644C9.17305 29.0506 8.92978 29.7833 8.90913 29.8422H8.24129C8.22523 29.781 8.0531 29.2509 7.72263 28.2684C7.38986 27.2859 6.963 26.056 6.42597 24.5929H6.4145C5.94862 25.8015 5.51487 26.9678 5.11555 28.0728C4.7254 29.1825 4.51427 29.7739 4.48673 29.8422H3.80053C3.78217 29.7456 3.57103 29.1024 3.18777 27.9055C2.79993 26.7086 2.28585 25.2102 1.63867 23.4125L2.42585 23.0991C2.43962 23.1462 2.6278 23.7235 2.98811 24.845C3.34154 25.9641 3.75922 27.2199 4.22051 28.61L4.24805 28.577C4.74376 27.3024 5.16833 26.1338 5.53782 25.0735C5.90502 24.0133 6.09091 23.4572 6.10927 23.4054H6.85972C6.8712 23.4667 7.06168 24.0628 7.43805 25.2125C7.80984 26.3576 8.19539 27.4767 8.58554 28.577L8.59472 28.5864C9.10879 27.1516 9.53795 25.8887 9.88678 24.8096C10.2402 23.7211 10.4261 23.1533 10.4376 23.1015L11.1513 23.3559V23.3536Z" fill="#798E0B"/>
<path d="M17.9095 29.8115H17.1223C17.1223 29.616 17.1246 29.2531 17.1315 28.716C17.1315 28.1905 17.1361 27.5332 17.1361 26.7392H13.2346C13.2346 27.6534 13.2415 28.3437 13.2438 28.8102C13.2461 29.2767 13.253 29.616 13.253 29.8115H12.4681C12.4681 29.616 12.4727 29.2626 12.475 28.7607C12.4796 28.2659 12.4796 27.4036 12.4796 26.2114C12.4796 25.8486 12.4796 25.408 12.475 24.8873C12.4704 24.369 12.4681 23.8035 12.4658 23.2051H13.2507C13.2507 23.7069 13.2507 24.2041 13.2438 24.6847C13.2392 25.1701 13.2323 25.6318 13.2323 26.0701H17.1338C17.1338 25.6318 17.1292 25.1701 17.1246 24.6965C17.12 24.2064 17.12 23.7116 17.12 23.2051H17.9072C17.9003 23.7022 17.898 24.2724 17.8957 24.925C17.8911 25.5824 17.8911 26.1125 17.8911 26.5154C17.8911 27.4861 17.8911 28.2282 17.8957 28.7442C17.9003 29.2531 17.9049 29.616 17.9072 29.8115H17.9095Z" fill="#798E0B"/>
<path d="M24.5902 27.7972C24.4365 28.1694 24.2414 28.471 23.9981 28.7043C23.7962 28.9045 23.5736 29.06 23.328 29.1661C23.0779 29.2768 22.8093 29.3239 22.5248 29.3239C22.2402 29.3239 21.974 29.2674 21.7215 29.159C21.4691 29.0482 21.2534 28.9022 21.0743 28.7231C20.8058 28.4616 20.6062 28.1435 20.4547 27.7689C20.3078 27.3966 20.2367 26.9749 20.2367 26.5013C20.2367 26.0749 20.3078 25.6743 20.4478 25.2856C20.5901 24.8992 20.7898 24.574 21.0468 24.3149C21.2465 24.1028 21.4714 23.9473 21.7261 23.8389C21.9763 23.7306 22.2379 23.6787 22.5317 23.6787C22.8254 23.6787 23.0893 23.7306 23.3326 23.8389C23.569 23.945 23.7824 24.0934 23.9752 24.2819C24.2621 24.5646 24.4755 24.9133 24.6155 25.3186C24.7509 25.7309 24.822 26.1503 24.822 26.5767C24.822 27.0032 24.7463 27.4273 24.5902 27.7925V27.7972ZM25.405 25.0782C25.2374 24.6306 25.001 24.2442 24.6889 23.9143C24.4158 23.6293 24.1014 23.4078 23.7342 23.2476C23.3647 23.0944 22.9654 23.012 22.5317 23.012C22.0979 23.012 21.6986 23.0991 21.313 23.2664C20.9275 23.4313 20.5901 23.6787 20.3147 23.9874C20.0164 24.3196 19.7869 24.6966 19.6377 25.1089C19.4862 25.5235 19.4082 25.9853 19.4082 26.4966C19.4082 27.0621 19.5023 27.5757 19.6951 28.0304C19.8879 28.4922 20.138 28.8692 20.4455 29.1613C20.7301 29.4441 21.0514 29.649 21.4002 29.7881C21.756 29.9341 22.1277 30.0025 22.5294 30.0025C22.931 30.0025 23.3165 29.9294 23.6723 29.7833C24.0326 29.6373 24.363 29.4017 24.6843 29.0742C24.9643 28.7867 25.1984 28.4192 25.3774 27.9762C25.5541 27.5309 25.6436 27.0409 25.6436 26.5084C25.6436 26.0042 25.5633 25.5259 25.4027 25.0806L25.405 25.0782Z" fill="#798E0B"/>
<path d="M31.1201 29.8114C31.0856 29.8114 30.8837 29.8044 30.5165 29.7997C30.1516 29.7973 29.6834 29.795 29.1142 29.795C28.7425 29.795 28.3867 29.795 28.0494 29.7997C27.712 29.8044 27.4229 29.8114 27.1934 29.8114C27.1957 29.246 27.2002 28.6711 27.2094 28.0868V26.3739C27.2094 25.4409 27.2094 24.7223 27.2002 24.2346C27.1957 23.7469 27.1957 23.3982 27.1934 23.2026H28.0012C27.9897 23.6291 27.9828 24.1192 27.9759 24.6775C27.9668 25.2336 27.9668 25.693 27.9668 26.0511C27.9668 26.9158 27.9668 27.6368 27.9759 28.2164C27.9828 28.796 27.9851 29.1046 27.9851 29.1353H28.9628C29.5296 29.1353 30.0299 29.1353 30.4476 29.1282C30.8699 29.1188 31.0971 29.1164 31.1201 29.1164V29.8091V29.8114Z" fill="#798E0B"/>
<path d="M36.3963 29.8115C36.3596 29.8115 36.1508 29.8045 35.7446 29.7998C35.3521 29.7974 34.861 29.795 34.2735 29.795C33.865 29.795 33.5001 29.795 33.1604 29.7998C32.8208 29.8045 32.5316 29.8115 32.2998 29.8115C32.309 29.623 32.309 29.2037 32.3182 28.5699C32.3182 27.929 32.3205 27.2717 32.3205 26.5884C32.3205 26.2091 32.3182 25.719 32.3182 25.1135C32.3182 24.508 32.309 23.8577 32.2998 23.2051C32.527 23.2051 32.8139 23.2098 33.1489 23.2121C33.4955 23.2169 33.8397 23.2169 34.2046 23.2169C34.8151 23.2169 35.3131 23.2169 35.6964 23.2121C36.075 23.2098 36.2862 23.2051 36.3183 23.2051V23.8954C36.2862 23.8954 36.0842 23.8931 35.717 23.886C35.3498 23.8813 34.8839 23.8789 34.3354 23.8789H33.087C33.087 24.2535 33.0801 24.6258 33.0801 25.0075C33.0732 25.3797 33.0732 25.7332 33.0732 26.0677H34.1059C34.6636 26.0677 35.1731 26.0654 35.6091 26.0559C36.0498 26.0489 36.2862 26.0489 36.316 26.0489V26.7368C36.2885 26.7368 36.0245 26.7368 35.5242 26.7298C35.0216 26.7204 34.5626 26.7156 34.1473 26.7156H33.0732C33.0732 27.3447 33.0732 27.8418 33.0755 28.2118C33.0778 28.5722 33.0778 28.8809 33.087 29.1306C33.2798 29.1401 33.5024 29.1401 33.7709 29.1424C34.0394 29.1424 34.3354 29.1424 34.6338 29.1424C35.1088 29.1424 35.5128 29.1424 35.8386 29.1353C36.1668 29.1353 36.3435 29.1259 36.394 29.1259V29.8021L36.3963 29.8115Z" fill="#798E0B"/>
<path d="M45.4287 23.8931C45.3713 23.8931 45.1602 23.8907 44.7976 23.8836C44.4304 23.8789 43.9852 23.8766 43.4527 23.8766H42.2892C42.2892 24.2512 42.2892 24.6564 42.2754 25.097C42.2708 25.5352 42.2708 25.9264 42.2708 26.2562H43.12C43.6432 26.2562 44.1343 26.2539 44.6002 26.2468C45.0684 26.2468 45.3254 26.2374 45.3782 26.2374V26.93C45.3162 26.93 45.0225 26.9253 44.4923 26.9206C43.9645 26.9136 43.4894 26.9112 43.0741 26.9112H42.2708C42.2708 27.4931 42.2708 28.0445 42.2708 28.5605C42.2777 29.0788 42.2846 29.4958 42.2869 29.8115H41.4951C41.502 29.6089 41.502 29.2531 41.5043 28.7513C41.5043 28.2471 41.5135 27.5214 41.5135 26.5719C41.5135 26.1949 41.5135 25.7025 41.5043 25.0994C41.5043 24.4868 41.5043 23.8554 41.4951 23.2051C41.7269 23.2051 42.0092 23.2098 42.3466 23.2121C42.6862 23.2169 43.0442 23.2169 43.4183 23.2169C43.9737 23.2169 44.4373 23.2169 44.809 23.2121C45.1625 23.2098 45.3782 23.2051 45.4287 23.2051V23.8954V23.8931Z" fill="#798E0B"/>
<path d="M51.5476 27.7972C51.3916 28.1694 51.1896 28.471 50.9532 28.7043C50.749 28.9045 50.5286 29.06 50.2808 29.1661C50.0283 29.2768 49.7667 29.3239 49.4798 29.3239C49.193 29.3239 48.9336 29.2674 48.6766 29.159C48.4265 29.0482 48.2084 28.9022 48.0248 28.7231C47.7586 28.4616 47.5544 28.1435 47.4121 27.7689C47.2606 27.3966 47.1872 26.9749 47.1872 26.5013C47.1872 26.0749 47.2629 25.6743 47.4029 25.2856C47.5452 24.8992 47.754 24.574 48.0065 24.3149C48.2061 24.1028 48.431 23.9473 48.6789 23.8389C48.9336 23.7306 49.1953 23.6787 49.4821 23.6787C49.769 23.6787 50.0467 23.7306 50.2854 23.8389C50.5241 23.945 50.7375 24.0934 50.9303 24.2819C51.2171 24.5646 51.426 24.9133 51.5637 25.3186C51.706 25.7309 51.7725 26.1503 51.7725 26.5767C51.7725 27.0032 51.6968 27.4273 51.5453 27.7925L51.5476 27.7972ZM52.3577 25.0782C52.1948 24.6306 51.9607 24.2442 51.644 23.9143C51.3732 23.6293 51.0588 23.4078 50.6847 23.2476C50.3175 23.0944 49.9182 23.012 49.4821 23.012C49.0461 23.012 48.6514 23.0991 48.2704 23.2664C47.8848 23.4313 47.5452 23.6787 47.2744 23.9874C46.9714 24.3196 46.7419 24.6966 46.5905 25.1089C46.4367 25.5235 46.3633 25.9853 46.3633 26.4966C46.3633 27.0621 46.4574 27.5757 46.6547 28.0304C46.8406 28.4922 47.0908 28.8692 47.4006 29.1613C47.6875 29.4441 48.0065 29.649 48.3553 29.7881C48.7064 29.9341 49.0828 30.0025 49.4798 30.0025C49.8769 30.0025 50.2716 29.9294 50.6296 29.7833C50.9831 29.6373 51.3158 29.4017 51.6348 29.0742C51.9194 28.7867 52.1535 28.4192 52.3302 27.9762C52.5092 27.5309 52.601 27.0409 52.601 26.5084C52.601 26.0042 52.5115 25.5259 52.3554 25.0806L52.3577 25.0782Z" fill="#798E0B"/>
<path d="M58.7875 27.7972C58.6337 28.1694 58.4341 28.471 58.1954 28.7043C57.9889 28.9045 57.7639 29.06 57.5207 29.1661C57.2682 29.2768 57.0043 29.3239 56.722 29.3239C56.4398 29.3239 56.1621 29.2674 55.9188 29.159C55.6663 29.0482 55.446 28.9022 55.2647 28.7231C55.0008 28.4616 54.7943 28.1435 54.6474 27.7689C54.4959 27.3966 54.4225 26.9749 54.4225 26.5013C54.4225 26.0749 54.4959 25.6743 54.6428 25.2856C54.7851 24.8992 54.987 24.574 55.2441 24.3149C55.4437 24.1028 55.6709 23.9473 55.9165 23.8389C56.1621 23.7306 56.4306 23.6787 56.7197 23.6787C57.0089 23.6787 57.2797 23.7306 57.5253 23.8389C57.7617 23.945 57.9774 24.0934 58.1679 24.2819C58.4547 24.5646 58.6636 24.9133 58.8059 25.3186C58.9436 25.7309 59.0124 26.1503 59.0124 26.5767C59.0124 27.0032 58.9367 27.4273 58.7829 27.7925L58.7875 27.7972ZM59.593 25.0782C59.4324 24.6306 59.196 24.2442 58.8839 23.9143C58.6131 23.6293 58.2941 23.4078 57.9223 23.2476C57.5528 23.0944 57.1535 23.012 56.722 23.012C56.2906 23.012 55.889 23.0991 55.5034 23.2664C55.1179 23.4313 54.7851 23.6787 54.5074 23.9874C54.2045 24.3196 53.9795 24.6966 53.8281 25.1089C53.6789 25.5235 53.6055 25.9853 53.6055 26.4966C53.6055 27.0621 53.7019 27.5757 53.89 28.0304C54.0851 28.4922 54.333 28.8692 54.6428 29.1613C54.9228 29.4441 55.2441 29.649 55.5975 29.7881C55.9532 29.9341 56.3273 30.0025 56.722 30.0025C57.1168 30.0025 57.5138 29.9294 57.8695 29.7833C58.2252 29.6373 58.5672 29.4017 58.8839 29.0742C59.1593 28.7867 59.3934 28.4192 59.5724 27.9762C59.7537 27.5309 59.8409 27.0409 59.8409 26.5084C59.8409 26.0042 59.7606 25.5259 59.5953 25.0806L59.593 25.0782Z" fill="#798E0B"/>
<path d="M65.622 27.7524C65.4016 28.0987 65.1056 28.3814 64.743 28.6029C64.4469 28.7796 64.0912 28.9186 63.6758 29.0223C63.2536 29.1189 62.8359 29.1707 62.4182 29.1707H62.1772C62.168 28.2259 62.168 27.4979 62.1657 26.9678C62.1634 26.4353 62.1634 26.0984 62.1634 25.9476V25.13C62.1657 24.7861 62.168 24.3596 62.1772 23.8389H62.4228C62.7854 23.8389 63.1893 23.8837 63.6322 23.9779C64.0706 24.0698 64.4653 24.2277 64.8348 24.468C65.2226 24.7177 65.5095 25.0193 65.6885 25.368C65.8629 25.7144 65.9547 26.0984 65.9547 26.5248C65.9547 26.9984 65.84 27.406 65.622 27.75V27.7524ZM66.4413 25.0476C66.2095 24.6141 65.8629 24.2489 65.3902 23.9402C64.9885 23.6834 64.5273 23.4879 64.0132 23.3606C63.4968 23.2475 62.9116 23.1863 62.2438 23.1863C62.2254 23.1863 62.0854 23.1863 61.8238 23.1957C61.5645 23.1957 61.4107 23.2028 61.3832 23.2028C61.3946 23.9873 61.3992 24.6588 61.3992 25.2102V26.5696C61.3992 27.2317 61.3992 27.9338 61.3923 28.6736C61.3855 29.411 61.3809 29.7927 61.3809 29.8092C61.4015 29.8092 61.5209 29.8092 61.7366 29.8163C61.9454 29.8234 62.1703 29.8281 62.3929 29.8281C62.9827 29.8281 63.5175 29.7668 63.9925 29.649C64.4584 29.5218 64.8922 29.3451 65.2754 29.1142C65.7206 28.8432 66.0787 28.5016 66.3564 28.0587C66.6386 27.6204 66.774 27.1139 66.774 26.5366C66.774 25.9594 66.657 25.4787 66.4344 25.0499L66.4413 25.0476Z" fill="#798E0B"/>
<path d="M71.6097 27.9456C71.6097 28.2872 71.534 28.5793 71.3688 28.8409C71.2127 29.0906 71.0016 29.2979 70.7422 29.4535C70.4967 29.5972 70.2236 29.7103 69.9092 29.7833C69.5993 29.8587 69.2528 29.8988 68.8695 29.8988C68.6699 29.8988 68.4519 29.8893 68.2384 29.8705C68.0112 29.854 67.8804 29.8422 67.8437 29.8422L67.8047 29.1495C67.8552 29.1613 67.9768 29.1778 68.1856 29.1943C68.3922 29.2155 68.6355 29.2202 68.9155 29.2202C69.0807 29.2202 69.3056 29.199 69.5718 29.1472C69.8472 29.1024 70.0492 29.0458 70.1937 28.9705C70.3865 28.8715 70.5265 28.7584 70.6298 28.6241C70.7331 28.4827 70.7858 28.3084 70.7858 28.1034C70.7858 27.8772 70.7331 27.6982 70.6298 27.5427C70.5288 27.3942 70.359 27.2411 70.1249 27.0974C69.9711 27.0078 69.7807 26.9018 69.5397 26.7887C69.2941 26.6756 69.0807 26.5555 68.8856 26.433C68.5574 26.2327 68.3233 26.0041 68.1856 25.7685C68.0457 25.5235 67.9699 25.2573 67.9699 24.9604C67.9699 24.6635 68.0411 24.3926 68.1604 24.1758C68.2866 23.9496 68.4565 23.7659 68.6607 23.6033C68.8673 23.4454 69.1174 23.33 69.418 23.2475C69.7118 23.1745 70.0469 23.1321 70.4095 23.1321C70.6091 23.1321 70.8157 23.1344 71.0176 23.1439C71.2242 23.1556 71.3366 23.1651 71.3665 23.1651L71.4376 23.8766C71.4078 23.8695 71.2907 23.8554 71.0819 23.8342C70.8754 23.813 70.6206 23.8083 70.32 23.8083C70.1387 23.8083 69.9597 23.8271 69.7669 23.8672C69.5672 23.9072 69.4043 23.9732 69.2597 24.0604C69.1312 24.1405 69.0141 24.2442 68.9338 24.3832C68.842 24.5175 68.7938 24.6777 68.7938 24.8662C68.7938 25.0264 68.842 25.1772 68.9338 25.3232C69.0371 25.4787 69.2115 25.6319 69.4708 25.7945C69.6016 25.8722 69.7784 25.9688 69.9941 26.0725C70.2121 26.1809 70.4278 26.2963 70.6344 26.4235C70.9557 26.6144 71.1944 26.8382 71.3596 27.0879C71.5156 27.3424 71.6052 27.6275 71.6052 27.9479L71.6097 27.9456Z" fill="#798E0B"/>
<path d="M17.0424 5.88111C16.588 4.62061 15.9018 3.50854 15.0137 2.57317C14.254 1.76975 13.3338 1.13361 12.2895 0.681237C11.2453 0.226513 10.0933 0.00268555 8.86775 0.00268555C7.64224 0.00268555 6.49935 0.243006 5.40465 0.723647C4.31913 1.20429 3.36213 1.89462 2.56807 2.77579C1.72122 3.71587 1.07175 4.7926 0.647181 5.96357C0.220317 7.14868 0 8.46338 0 9.89352C0 11.5027 0.279986 12.9682 0.812418 14.2546C1.35633 15.5481 2.07465 16.6343 2.96051 17.4801C3.75686 18.2576 4.66337 18.8561 5.66857 19.2542C6.66688 19.6501 7.74551 19.8527 8.86546 19.8527C9.9854 19.8527 11.1145 19.643 12.122 19.2236C13.1341 18.8042 14.1026 18.1351 14.993 17.2233C15.8054 16.4034 16.4664 15.3502 16.9736 14.0873C17.4808 12.8268 17.7332 11.4226 17.7332 9.91708C17.7332 8.49636 17.4991 7.14162 17.0424 5.88111ZM14.4308 13.4559C14.02 14.4525 13.4783 15.2819 12.8289 15.9157C12.2895 16.4552 11.6745 16.8722 11.0113 17.162C10.348 17.4518 9.61821 17.5956 8.85628 17.5956C8.09435 17.5956 7.36684 17.4424 6.69901 17.1503C6.02888 16.8557 5.43678 16.4576 4.94795 15.9746C4.22962 15.2701 3.67195 14.4078 3.27951 13.3923C2.88248 12.3792 2.68052 11.2106 2.68052 9.91944C2.68052 8.77909 2.87789 7.66467 3.26344 6.60914C3.649 5.56304 4.1929 4.6748 4.88598 3.95855C5.4253 3.40722 6.04035 2.97842 6.70589 2.69333C7.36684 2.40118 8.09435 2.25981 8.86775 2.25981C9.64116 2.25981 10.3847 2.40118 11.025 2.68155C11.663 2.96193 12.2505 3.36717 12.7646 3.87844C13.5311 4.63239 14.1118 5.57718 14.4904 6.69632C14.8714 7.81781 15.0596 8.97936 15.0596 10.1409C15.0596 11.3025 14.8507 12.4711 14.433 13.4559H14.4308Z" fill="#2C1C09"/>
<path d="M23.2554 0.445339L21.7292 0.487748L21.7246 0.678591L21.7935 7.44526V9.98983L21.7659 15.8989L21.7246 19.2964H24.3294L24.2927 15.0342L24.2628 9.91208L24.272 7.08478C24.272 7.08478 24.3225 3.02525 24.3271 2.66948H25.2451L26.808 2.72838C27.361 2.76844 27.8935 2.8886 28.3869 3.07944C28.9813 3.30562 29.4495 3.65668 29.7868 4.13025C30.1265 4.60854 30.2917 5.174 30.2917 5.83841C30.2917 6.57351 30.1816 7.15782 29.9567 7.58427C29.718 8.02014 29.4357 8.40183 29.1236 8.69163C28.7518 9.03326 28.2905 9.36311 27.7397 9.65998C27.1935 9.9592 26.7483 10.1571 26.427 10.2419L26.2962 10.2773L26.2641 10.6213L31.8362 17.15L34.0509 19.6828L34.1886 19.5532L36.0016 18.0029L33.5184 15.3334C32.1139 13.8232 30.8104 12.3412 29.6285 10.9181C30.2963 10.4964 31.0055 9.87909 31.7398 9.06624C32.55 8.15915 32.9676 7.01881 32.9676 5.67349C32.9676 4.62503 32.69 3.69909 32.1552 2.91923C31.6136 2.14407 30.8838 1.55034 29.9658 1.15216C29.2567 0.843517 28.5177 0.638537 27.7673 0.54665C27.026 0.459475 26.2595 0.412354 25.4746 0.412354L23.2508 0.442983L23.2554 0.445339Z" fill="#2C1C09"/>
<path d="M46.1747 16.9072C45.1214 16.7022 44.1116 16.3465 43.1706 15.8564C42.1287 15.3074 41.2589 14.5323 40.6003 13.5592C39.9462 12.5909 39.6134 11.3492 39.6134 9.86015C39.6134 8.68918 39.9324 7.57475 40.5658 6.53572C41.1993 5.48962 42.0897 4.65557 43.2074 4.05241C44.0312 3.6024 45.0204 3.25841 46.1288 3.02516C47.2488 2.78955 48.495 2.6741 49.8398 2.6741H51.086L50.8886 0.308594H49.5713C48.1461 0.308594 46.7577 0.449959 45.4426 0.730333C44.1207 1.01071 42.9251 1.43951 41.8854 1.99555C40.3593 2.81547 39.1338 3.90869 38.2594 5.24694C37.3781 6.59227 36.9375 8.13314 36.9375 9.83659C36.9375 11.2149 37.1693 12.4636 37.6329 13.5427C38.0873 14.6218 38.7046 15.543 39.4574 16.264C40.6691 17.4538 42.1264 18.2902 43.7742 18.7638C44.6188 19.0088 45.5436 19.1926 46.5351 19.308C46.5351 19.308 49.2707 19.6167 51.7722 18.9664L51.7561 17.2653L51.7446 14.1694L51.7676 11.9736L51.8112 9.45962L49.2018 9.45491L49.2569 15.2768C49.2569 15.2768 49.2684 16.615 49.2707 16.9543C47.9373 17.2747 46.1747 16.9119 46.1747 16.9119V16.9072Z" fill="#2C1C09"/>
<path d="M69.2323 12.301L63.9263 0.240234H61.9343L56.6329 12.1125L53.6885 18.58L53.8468 18.6695L55.8457 19.758L56.7775 17.5998C56.7775 17.5998 58.804 12.9725 58.8981 12.7534H66.5426C66.639 12.9701 68.6103 17.5174 68.6103 17.5174L69.5467 19.7439L69.7303 19.6614L71.9977 18.4857L69.23 12.3034L69.2323 12.301ZM59.839 10.5881C60.0432 10.1122 61.2779 7.26136 61.2779 7.26136C61.2779 7.26136 62.5011 4.45527 62.7513 3.89452C62.9969 4.46233 64.2453 7.36503 64.2453 7.36503C64.2453 7.36503 65.4181 10.1193 65.6131 10.5881H59.8367H59.839Z" fill="#2C1C09"/>
</g>
<defs>
<clipPath id="clip0_4691_68238">
<rect width="72" height="30" fill="white"/>
</clipPath>
</defs>
</svg>
