<svg width="57" height="40" viewBox="0 0 57 40" fill="none" xmlns="http://www.w3.org/2000/svg">
<path d="M35.9551 37.1682H41.1507V38.6889H35.9551V37.1682ZM41.1507 34.3684V35.9429H35.9551V34.3684H34.5306V39.9202H42.5731V34.3684H41.1507Z" fill="#86BC25"/>
<path d="M45.4598 36.8969C45.3084 36.7952 45.2506 36.5976 45.3084 36.434C45.3164 36.408 45.3343 36.3841 45.3443 36.3561L46.9559 33.8876C46.5216 32.8059 46.4738 31.6106 46.8723 30.5409C46.9798 30.2476 47.1213 29.9702 47.2926 29.7028C48.1911 28.3238 49.7649 27.6233 51.3965 27.7012L51.4443 27.7052L51.4643 27.7471C52.048 28.9285 52.1655 30.2715 51.7193 31.4749C51.6077 31.7682 51.4682 32.0476 51.2909 32.311C50.4761 33.5802 49.0896 34.2647 47.6094 34.3146L46.0057 36.7812C45.9021 36.9348 45.7068 36.9967 45.5415 36.9349C45.5136 36.9229 45.4877 36.9149 45.4618 36.8989" fill="#86BC25"/>
<path d="M54.7932 34.4801C55.0103 35.0987 54.8868 35.7453 54.5302 36.2362C54.3071 36.5495 53.9883 36.801 53.5939 36.9367C52.9823 37.1442 52.3288 37.0285 51.8388 36.6732C51.6276 36.5196 51.4443 36.322 51.3049 36.0845L48.6552 36.9985C48.5317 37.0364 48.3963 37.0165 48.2986 36.9466C48.2349 36.8987 48.1891 36.8309 48.1592 36.7511C48.1173 36.6234 48.1413 36.4956 48.215 36.3959C48.2588 36.336 48.3245 36.2861 48.4022 36.2562L51.0499 35.3482C50.9901 34.8473 51.1216 34.3623 51.4005 33.9672C51.6256 33.6559 51.9463 33.4064 52.3388 33.2707C52.9584 33.0632 53.6058 33.1769 54.0959 33.5302C54.4127 33.7557 54.6577 34.0789 54.7912 34.4781" fill="#86BC25"/>
<path d="M32.2058 32.6561C32.2058 33.0093 31.9209 33.2927 31.5703 33.2927H21.0336V32.0475H25.9363V30.2155H22.4719V24.979H23.8963V28.9882H31.0423V29.5769C31.0423 29.9301 30.7575 30.2135 30.4068 30.2135H27.3508V32.0455H32.2078V32.6541L32.2058 32.6561Z" fill="#86BC25"/>
<path d="M42.6607 25.7614C42.6607 26.1146 42.3758 26.398 42.0252 26.398H39.2939V26.9069C39.2939 27.1982 39.2939 27.4457 39.5688 27.6752C40.9036 28.5253 42.0133 29.3256 43.3142 30.1617L42.6129 31.2074L38.6006 28.4335L34.5645 31.2074L33.8672 30.1617C35.1661 29.3256 36.2777 28.5253 37.6125 27.6752C37.8854 27.4457 37.8854 27.1982 37.8854 26.9069V26.398H34.5346V25.1687H42.6607V25.7594V25.7614Z" fill="#86BC25"/>
<path d="M43.9477 32.6383C43.9477 32.9915 43.6628 33.2769 43.3122 33.2769H33.158V32.0496H43.9477V32.6383Z" fill="#86BC25"/>
<path d="M30.8291 39.2775C30.8291 39.6746 30.5064 39.9999 30.106 39.9999H29.4027V35.9907H22.3922V34.7634H30.8271V39.2775H30.8291Z" fill="#86BC25"/>
<path d="M17.7305 12.1113H2.7572V9.51903H5.41478V3.49229H2.77513V0.895996H19.2147V2.15323C19.2147 2.89161 18.615 3.49229 17.8799 3.49229H16.1268V9.51903H19.0673V10.7743C19.0673 11.5106 18.4676 12.1113 17.7305 12.1113ZM8.48076 9.51903H12.9632V3.49229H8.48076V9.51903Z" fill="#1D1D1B"/>
<path d="M17.2723 33.3826H8.67001C5.28926 33.3826 3.57399 31.7702 3.57399 28.5912V24.9572H14.5948V22.4227H3.57598V19.7586H9.1063V17.1404H0V14.55H19.6589V15.8013C19.6589 16.5397 19.0613 17.1404 18.3242 17.1404H12.1324V19.7586H17.6647V27.5973H6.6061L6.60212 28.653C6.60212 30.3593 7.05235 30.7524 9.01068 30.7524H18.609V32.0436C18.609 32.7819 18.0094 33.3826 17.2743 33.3826H17.2723Z" fill="#1D1D1B"/>
<path d="M54.3529 21.3888H52.8568V18.3196H48.3325V15.9668H52.8568V4.4541H55.8829V19.8562C55.8829 20.7024 55.1976 21.3888 54.3529 21.3888Z" fill="#1D1D1B"/>
<path d="M45.0434 10.2774C41.7204 10.2774 39.6007 8.02834 39.6007 5.14069C39.6007 2.25304 41.7224 0 45.0434 0C48.3644 0 50.486 2.24905 50.486 5.1387C50.486 8.02834 48.3663 10.2754 45.0434 10.2754V10.2774ZM45.0434 2.7739C43.5313 2.7739 42.6169 3.77969 42.6169 5.14269C42.6169 6.50569 43.5313 7.50549 45.0434 7.50549C46.5554 7.50549 47.4679 6.5017 47.4679 5.14269C47.4679 3.78368 46.5535 2.7739 45.0434 2.7739Z" fill="#1D1D1B"/>
<path d="M44.8362 17.8907H43.342V14.1409H38.4373V11.7063H51.5718V12.8019C51.5718 13.5403 50.9721 14.1389 50.237 14.1389H46.3682V16.3541C46.3682 17.2002 45.6809 17.8867 44.8382 17.8867L44.8362 17.8907Z" fill="#1D1D1B"/>
<path d="M46.3762 19.2237L46.3722 21.9756C46.3722 22.9415 46.8961 23.4085 48.1153 23.4085H56.4706V24.532C56.4706 25.2704 55.8709 25.8711 55.1358 25.8711H47.5555C44.619 25.8711 43.348 24.7595 43.348 22.0235V19.2217H46.3762V19.2237Z" fill="#1D1D1B"/>
<path d="M29.3689 25.923H27.8747V17.1404H21.2148V14.55H37.6444V15.8033C37.6444 16.5417 37.0448 17.1404 36.3097 17.1404H30.8989V24.3904C30.8989 25.2365 30.2116 25.923 29.3689 25.923Z" fill="#1D1D1B"/>
<path d="M35.3714 11.8879H23.1752V1.14355H35.3714V11.8879ZM26.2392 9.34352H32.3054V3.69394H26.2392V9.34352Z" fill="#1D1D1B"/>
</svg>
