<svg width="51" height="20" viewBox="0 0 51 20" fill="none" xmlns="http://www.w3.org/2000/svg">
<g clip-path="url(#clip0_1638_35386)">
<path d="M7.89876 15.5691C7.51675 16.5382 7.15911 17.4963 6.82749 18.4293C6.49749 19.3671 6.32518 19.8556 6.31055 19.8948H5.8375C5.82612 19.854 5.7042 19.5006 5.47011 18.8456C5.2344 18.1906 4.93204 17.3707 4.55165 16.3953H4.54352C4.21352 17.201 3.90629 17.9785 3.62343 18.7152C3.34708 19.455 3.19752 19.8493 3.17802 19.8948H2.69196C2.67896 19.8304 2.5294 19.4016 2.25793 18.6037C1.9832 17.8058 1.61906 16.8068 1.16064 15.6083L1.71823 15.3994C1.72798 15.4308 1.86128 15.8157 2.1165 16.5633C2.36684 17.3094 2.6627 18.1466 2.98945 19.0733L3.00895 19.0513C3.36008 18.2016 3.66082 17.4225 3.92254 16.7157C4.18264 16.0089 4.31431 15.6382 4.32732 15.6036H4.85889C4.86702 15.6444 5.00194 16.0418 5.26854 16.8084C5.53189 17.5717 5.80499 18.3178 6.08134 19.0513L6.08784 19.0576C6.45198 18.1011 6.75597 17.2591 7.00306 16.5398C7.2534 15.8141 7.38507 15.4355 7.3932 15.401L7.89876 15.5706V15.5691Z" fill="#BDBDBD"/>
<path d="M7.89876 15.5691C7.51675 16.5382 7.15911 17.4963 6.82749 18.4293C6.49749 19.3671 6.32518 19.8556 6.31055 19.8948H5.8375C5.82612 19.854 5.7042 19.5006 5.47011 18.8456C5.2344 18.1906 4.93204 17.3707 4.55165 16.3953H4.54352C4.21352 17.201 3.90629 17.9785 3.62343 18.7152C3.34708 19.455 3.19752 19.8493 3.17802 19.8948H2.69196C2.67896 19.8304 2.5294 19.4016 2.25793 18.6037C1.9832 17.8058 1.61906 16.8068 1.16064 15.6083L1.71823 15.3994C1.72798 15.4308 1.86128 15.8157 2.1165 16.5633C2.36684 17.3094 2.6627 18.1466 2.98945 19.0733L3.00895 19.0513C3.36008 18.2016 3.66082 17.4225 3.92254 16.7157C4.18264 16.0089 4.31431 15.6382 4.32732 15.6036H4.85889C4.86702 15.6444 5.00194 16.0418 5.26854 16.8084C5.53189 17.5717 5.80499 18.3178 6.08134 19.0513L6.08784 19.0576C6.45198 18.1011 6.75597 17.2591 7.00306 16.5398C7.2534 15.8141 7.38507 15.4355 7.3932 15.401L7.89876 15.5706V15.5691Z" fill="#BDBDBD"/>
<path d="M12.686 19.8743H12.1284C12.1284 19.7439 12.13 19.502 12.1349 19.1439C12.1349 18.7936 12.1382 18.3554 12.1382 17.8261H9.37465C9.37465 18.4355 9.37953 18.8957 9.38116 19.2067C9.38278 19.5177 9.38766 19.7439 9.38766 19.8743H8.8317C8.8317 19.7439 8.83496 19.5083 8.83658 19.1737C8.83983 18.8439 8.83983 18.269 8.83983 17.4742C8.83983 17.2323 8.83983 16.9386 8.83658 16.5915C8.83333 16.2459 8.8317 15.8689 8.83008 15.47H9.38603C9.38603 15.8045 9.38603 16.136 9.38116 16.4564C9.37791 16.78 9.37303 17.0878 9.37303 17.38H12.1366C12.1366 17.0878 12.1333 16.78 12.13 16.4642C12.1268 16.1375 12.1268 15.8077 12.1268 15.47H12.6844C12.6795 15.8014 12.6779 16.1815 12.6763 16.6166C12.673 17.0548 12.673 17.4082 12.673 17.6768C12.673 18.324 12.673 18.8188 12.6763 19.1627C12.6795 19.502 12.6828 19.7439 12.6844 19.8743H12.686Z" fill="#BDBDBD"/>
<path d="M12.686 19.8743H12.1284C12.1284 19.7439 12.13 19.502 12.1349 19.1439C12.1349 18.7936 12.1382 18.3554 12.1382 17.8261H9.37465C9.37465 18.4355 9.37953 18.8957 9.38116 19.2067C9.38278 19.5177 9.38766 19.7439 9.38766 19.8743H8.8317C8.8317 19.7439 8.83496 19.5083 8.83658 19.1737C8.83983 18.8439 8.83983 18.269 8.83983 17.4742C8.83983 17.2323 8.83983 16.9386 8.83658 16.5915C8.83333 16.2459 8.8317 15.8689 8.83008 15.47H9.38603C9.38603 15.8045 9.38603 16.136 9.38116 16.4564C9.37791 16.78 9.37303 17.0878 9.37303 17.38H12.1366C12.1366 17.0878 12.1333 16.78 12.13 16.4642C12.1268 16.1375 12.1268 15.8077 12.1268 15.47H12.6844C12.6795 15.8014 12.6779 16.1815 12.6763 16.6166C12.673 17.0548 12.673 17.4082 12.673 17.6768C12.673 18.324 12.673 18.8188 12.6763 19.1627C12.6795 19.502 12.6828 19.7439 12.6844 19.8743H12.686Z" fill="#BDBDBD"/>
<path d="M17.4182 18.5314C17.3093 18.7796 17.1711 18.9807 16.9988 19.1362C16.8557 19.2697 16.698 19.3734 16.5241 19.444C16.3469 19.5179 16.1567 19.5493 15.9551 19.5493C15.7536 19.5493 15.565 19.5116 15.3862 19.4393C15.2073 19.3655 15.0545 19.2681 14.9277 19.1487C14.7376 18.9744 14.5961 18.7623 14.4888 18.5126C14.3848 18.2644 14.3344 17.9833 14.3344 17.6675C14.3344 17.3832 14.3848 17.1162 14.484 16.8571C14.5847 16.5995 14.7262 16.3827 14.9082 16.2099C15.0497 16.0686 15.209 15.9649 15.3894 15.8926C15.5666 15.8204 15.7519 15.7858 15.96 15.7858C16.1681 15.7858 16.355 15.8204 16.5273 15.8926C16.6948 15.9633 16.846 16.0623 16.9825 16.1879C17.1857 16.3764 17.3369 16.6089 17.436 16.879C17.532 17.1539 17.5824 17.4335 17.5824 17.7178C17.5824 18.0021 17.5287 18.2848 17.4182 18.5283V18.5314ZM17.9953 16.7188C17.8766 16.4204 17.7092 16.1628 17.4881 15.9429C17.2946 15.7528 17.0719 15.6052 16.8118 15.4984C16.5501 15.3963 16.2672 15.3413 15.96 15.3413C15.6528 15.3413 15.3699 15.3994 15.0968 15.5109C14.8237 15.6209 14.5847 15.7858 14.3897 15.9916C14.1783 16.2131 14.0158 16.4644 13.9101 16.7393C13.8028 17.0157 13.7476 17.3236 13.7476 17.6644C13.7476 18.0414 13.8142 18.3838 13.9508 18.6869C14.0873 18.9948 14.2645 19.2461 14.4823 19.4409C14.6839 19.6294 14.9115 19.766 15.1586 19.8587C15.4105 19.9561 15.6739 20.0016 15.9584 20.0016C16.2429 20.0016 16.516 19.9529 16.7679 19.8556C17.0231 19.7582 17.2572 19.6011 17.4848 19.3828C17.6831 19.1911 17.849 18.9461 17.9757 18.6508C18.1009 18.354 18.1643 18.0272 18.1643 17.6723C18.1643 17.3361 18.1074 17.0173 17.9936 16.7204L17.9953 16.7188Z" fill="#BDBDBD"/>
<path d="M17.4182 18.5314C17.3093 18.7796 17.1711 18.9807 16.9988 19.1362C16.8557 19.2697 16.698 19.3734 16.5241 19.444C16.3469 19.5179 16.1567 19.5493 15.9551 19.5493C15.7536 19.5493 15.565 19.5116 15.3862 19.4393C15.2073 19.3655 15.0545 19.2681 14.9277 19.1487C14.7376 18.9744 14.5961 18.7623 14.4888 18.5126C14.3848 18.2644 14.3344 17.9833 14.3344 17.6675C14.3344 17.3832 14.3848 17.1162 14.484 16.8571C14.5847 16.5995 14.7262 16.3827 14.9082 16.2099C15.0497 16.0686 15.209 15.9649 15.3894 15.8926C15.5666 15.8204 15.7519 15.7858 15.96 15.7858C16.1681 15.7858 16.355 15.8204 16.5273 15.8926C16.6948 15.9633 16.846 16.0623 16.9825 16.1879C17.1857 16.3764 17.3369 16.6089 17.436 16.879C17.532 17.1539 17.5824 17.4335 17.5824 17.7178C17.5824 18.0021 17.5287 18.2848 17.4182 18.5283V18.5314ZM17.9953 16.7188C17.8766 16.4204 17.7092 16.1628 17.4881 15.9429C17.2946 15.7528 17.0719 15.6052 16.8118 15.4984C16.5501 15.3963 16.2672 15.3413 15.96 15.3413C15.6528 15.3413 15.3699 15.3994 15.0968 15.5109C14.8237 15.6209 14.5847 15.7858 14.3897 15.9916C14.1783 16.2131 14.0158 16.4644 13.9101 16.7393C13.8028 17.0157 13.7476 17.3236 13.7476 17.6644C13.7476 18.0414 13.8142 18.3838 13.9508 18.6869C14.0873 18.9948 14.2645 19.2461 14.4823 19.4409C14.6839 19.6294 14.9115 19.766 15.1586 19.8587C15.4105 19.9561 15.6739 20.0016 15.9584 20.0016C16.2429 20.0016 16.516 19.9529 16.7679 19.8556C17.0231 19.7582 17.2572 19.6011 17.4848 19.3828C17.6831 19.1911 17.849 18.9461 17.9757 18.6508C18.1009 18.354 18.1643 18.0272 18.1643 17.6723C18.1643 17.3361 18.1074 17.0173 17.9936 16.7204L17.9953 16.7188Z" fill="#BDBDBD"/>
<path d="M22.0431 19.8744C22.0187 19.8744 21.8757 19.8697 21.6156 19.8665C21.3571 19.865 21.0255 19.8634 20.6223 19.8634C20.359 19.8634 20.107 19.8634 19.8681 19.8665C19.6291 19.8697 19.4243 19.8744 19.2617 19.8744C19.2633 19.4974 19.2666 19.1142 19.2731 18.7246V17.5827C19.2731 16.9607 19.2731 16.4816 19.2666 16.1565C19.2633 15.8313 19.2633 15.5989 19.2617 15.4685H19.8339C19.8258 15.7528 19.8209 16.0795 19.816 16.4518C19.8095 16.8225 19.8095 17.1288 19.8095 17.3675C19.8095 17.944 19.8095 18.4246 19.816 18.811C19.8209 19.1974 19.8226 19.4032 19.8226 19.4236H20.5151C20.9166 19.4236 21.271 19.4236 21.5668 19.4189C21.8659 19.4126 22.0269 19.411 22.0431 19.411V19.8728V19.8744Z" fill="#BDBDBD"/>
<path d="M22.0431 19.8744C22.0187 19.8744 21.8757 19.8697 21.6156 19.8665C21.3571 19.865 21.0255 19.8634 20.6223 19.8634C20.359 19.8634 20.107 19.8634 19.8681 19.8665C19.6291 19.8697 19.4243 19.8744 19.2617 19.8744C19.2633 19.4974 19.2666 19.1142 19.2731 18.7246V17.5827C19.2731 16.9607 19.2731 16.4816 19.2666 16.1565C19.2633 15.8313 19.2633 15.5989 19.2617 15.4685H19.8339C19.8258 15.7528 19.8209 16.0795 19.816 16.4518C19.8095 16.8225 19.8095 17.1288 19.8095 17.3675C19.8095 17.944 19.8095 18.4246 19.816 18.811C19.8209 19.1974 19.8226 19.4032 19.8226 19.4236H20.5151C20.9166 19.4236 21.271 19.4236 21.5668 19.4189C21.8659 19.4126 22.0269 19.411 22.0431 19.411V19.8728V19.8744Z" fill="#BDBDBD"/>
<path d="M25.7806 19.8743C25.7546 19.8743 25.6067 19.8696 25.3189 19.8664C25.041 19.8649 24.6931 19.8633 24.2769 19.8633C23.9876 19.8633 23.7291 19.8633 23.4885 19.8664C23.2479 19.8696 23.0431 19.8743 22.8789 19.8743C22.8854 19.7486 22.8854 19.469 22.8919 19.0465C22.8919 18.6193 22.8935 18.181 22.8935 17.7255C22.8935 17.4726 22.8919 17.1459 22.8919 16.7423C22.8919 16.3386 22.8854 15.9051 22.8789 15.47C23.0398 15.47 23.243 15.4731 23.4804 15.4747C23.7258 15.4778 23.9697 15.4778 24.2282 15.4778C24.6606 15.4778 25.0133 15.4778 25.2848 15.4747C25.553 15.4731 25.7026 15.47 25.7253 15.47V15.9302C25.7026 15.9302 25.5595 15.9286 25.2994 15.9239C25.0393 15.9208 24.7093 15.9192 24.3208 15.9192H23.4365C23.4365 16.1689 23.4316 16.4171 23.4316 16.6716C23.4267 16.9197 23.4267 17.1554 23.4267 17.3784H24.1583C24.5533 17.3784 24.9142 17.3768 25.223 17.3705C25.5351 17.3658 25.7026 17.3658 25.7237 17.3658V17.8245C25.7042 17.8245 25.5173 17.8245 25.1629 17.8198C24.8069 17.8135 24.4817 17.8103 24.1875 17.8103H23.4267C23.4267 18.2297 23.4267 18.5612 23.4284 18.8078C23.43 19.0481 23.43 19.2538 23.4365 19.4203C23.573 19.4266 23.7307 19.4266 23.9209 19.4282C24.1111 19.4282 24.3208 19.4282 24.5321 19.4282C24.8686 19.4282 25.1547 19.4282 25.3856 19.4235C25.618 19.4235 25.7432 19.4172 25.779 19.4172V19.868L25.7806 19.8743Z" fill="#BDBDBD"/>
<path d="M25.7806 19.8743C25.7546 19.8743 25.6067 19.8696 25.3189 19.8664C25.041 19.8649 24.6931 19.8633 24.2769 19.8633C23.9876 19.8633 23.7291 19.8633 23.4885 19.8664C23.2479 19.8696 23.0431 19.8743 22.8789 19.8743C22.8854 19.7486 22.8854 19.469 22.8919 19.0465C22.8919 18.6193 22.8935 18.181 22.8935 17.7255C22.8935 17.4726 22.8919 17.1459 22.8919 16.7423C22.8919 16.3386 22.8854 15.9051 22.8789 15.47C23.0398 15.47 23.243 15.4731 23.4804 15.4747C23.7258 15.4778 23.9697 15.4778 24.2282 15.4778C24.6606 15.4778 25.0133 15.4778 25.2848 15.4747C25.553 15.4731 25.7026 15.47 25.7253 15.47V15.9302C25.7026 15.9302 25.5595 15.9286 25.2994 15.9239C25.0393 15.9208 24.7093 15.9192 24.3208 15.9192H23.4365C23.4365 16.1689 23.4316 16.4171 23.4316 16.6716C23.4267 16.9197 23.4267 17.1554 23.4267 17.3784H24.1583C24.5533 17.3784 24.9142 17.3768 25.223 17.3705C25.5351 17.3658 25.7026 17.3658 25.7237 17.3658V17.8245C25.7042 17.8245 25.5173 17.8245 25.1629 17.8198C24.8069 17.8135 24.4817 17.8103 24.1875 17.8103H23.4267C23.4267 18.2297 23.4267 18.5612 23.4284 18.8078C23.43 19.0481 23.43 19.2538 23.4365 19.4203C23.573 19.4266 23.7307 19.4266 23.9209 19.4282C24.1111 19.4282 24.3208 19.4282 24.5321 19.4282C24.8686 19.4282 25.1547 19.4282 25.3856 19.4235C25.618 19.4235 25.7432 19.4172 25.779 19.4172V19.868L25.7806 19.8743Z" fill="#BDBDBD"/>
<path d="M32.1789 15.9286C32.1382 15.9286 31.9887 15.9271 31.7318 15.9223C31.4717 15.9192 31.1564 15.9176 30.7792 15.9176H29.955C29.955 16.1674 29.955 16.4375 29.9453 16.7313C29.942 17.0234 29.942 17.2842 29.942 17.5041H30.5435C30.9141 17.5041 31.262 17.5025 31.592 17.4978C31.9236 17.4978 32.1057 17.4915 32.1431 17.4915V17.9533C32.0992 17.9533 31.8911 17.9501 31.5156 17.947C31.1417 17.9423 30.8052 17.9407 30.511 17.9407H29.942C29.942 18.3287 29.942 18.6962 29.942 19.0402C29.9469 19.3858 29.9518 19.6638 29.9534 19.8743H29.3926C29.3975 19.7392 29.3975 19.502 29.3991 19.1675C29.3991 18.8313 29.4056 18.3475 29.4056 17.7145C29.4056 17.4632 29.4056 17.1349 29.3991 16.7328C29.3991 16.3244 29.3991 15.9035 29.3926 15.47C29.5568 15.47 29.7567 15.4731 29.9957 15.4747C30.2363 15.4778 30.4899 15.4778 30.7548 15.4778C31.1482 15.4778 31.4766 15.4778 31.7399 15.4747C31.9903 15.4731 32.1431 15.47 32.1789 15.47V15.9302V15.9286Z" fill="#BDBDBD"/>
<path d="M32.1789 15.9286C32.1382 15.9286 31.9887 15.9271 31.7318 15.9223C31.4717 15.9192 31.1564 15.9176 30.7792 15.9176H29.955C29.955 16.1674 29.955 16.4375 29.9453 16.7313C29.942 17.0234 29.942 17.2842 29.942 17.5041H30.5435C30.9141 17.5041 31.262 17.5025 31.592 17.4978C31.9236 17.4978 32.1057 17.4915 32.1431 17.4915V17.9533C32.0992 17.9533 31.8911 17.9501 31.5156 17.947C31.1417 17.9423 30.8052 17.9407 30.511 17.9407H29.942C29.942 18.3287 29.942 18.6962 29.942 19.0402C29.9469 19.3858 29.9518 19.6638 29.9534 19.8743H29.3926C29.3975 19.7392 29.3975 19.502 29.3991 19.1675C29.3991 18.8313 29.4056 18.3475 29.4056 17.7145C29.4056 17.4632 29.4056 17.1349 29.3991 16.7328C29.3991 16.3244 29.3991 15.9035 29.3926 15.47C29.5568 15.47 29.7567 15.4731 29.9957 15.4747C30.2363 15.4778 30.4899 15.4778 30.7548 15.4778C31.1482 15.4778 31.4766 15.4778 31.7399 15.4747C31.9903 15.4731 32.1431 15.47 32.1789 15.47V15.9302V15.9286Z" fill="#BDBDBD"/>
<path d="M36.5126 18.5314C36.402 18.7796 36.259 18.9807 36.0915 19.1362C35.9469 19.2697 35.7908 19.3734 35.6152 19.444C35.4364 19.5179 35.2511 19.5493 35.0479 19.5493C34.8447 19.5493 34.661 19.5116 34.4789 19.4393C34.3017 19.3655 34.1473 19.2681 34.0173 19.1487C33.8287 18.9744 33.684 18.7623 33.5832 18.5126C33.4759 18.2644 33.4239 17.9833 33.4239 17.6675C33.4239 17.3832 33.4776 17.1162 33.5767 16.8571C33.6775 16.5995 33.8254 16.3827 34.0043 16.2099C34.1457 16.0686 34.305 15.9649 34.4806 15.8926C34.661 15.8204 34.8463 15.7858 35.0495 15.7858C35.2527 15.7858 35.4494 15.8204 35.6185 15.8926C35.7875 15.9633 35.9387 16.0623 36.0753 16.1879C36.2785 16.3764 36.4264 16.6089 36.5239 16.879C36.6247 17.1539 36.6719 17.4335 36.6719 17.7178C36.6719 18.0021 36.6182 18.2848 36.5109 18.5283L36.5126 18.5314ZM37.0864 16.7188C36.971 16.4204 36.8052 16.1628 36.5808 15.9429C36.389 15.7528 36.1663 15.6052 35.9013 15.4984C35.6412 15.3963 35.3584 15.3413 35.0495 15.3413C34.7407 15.3413 34.4611 15.3994 34.1912 15.5109C33.9181 15.6209 33.6775 15.7858 33.4857 15.9916C33.2711 16.2131 33.1086 16.4644 33.0013 16.7393C32.8923 17.0157 32.8403 17.3236 32.8403 17.6644C32.8403 18.0414 32.907 18.3838 33.0468 18.6869C33.1785 18.9948 33.3556 19.2461 33.5751 19.4409C33.7783 19.6294 34.0043 19.766 34.2514 19.8587C34.5001 19.9561 34.7667 20.0016 35.0479 20.0016C35.3291 20.0016 35.6087 19.9529 35.8623 19.8556C36.1127 19.7582 36.3484 19.6011 36.5743 19.3828C36.7759 19.1911 36.9417 18.9461 37.0669 18.6508C37.1937 18.354 37.2587 18.0272 37.2587 17.6723C37.2587 17.3361 37.1953 17.0173 37.0848 16.7204L37.0864 16.7188Z" fill="#BDBDBD"/>
<path d="M36.5126 18.5314C36.402 18.7796 36.259 18.9807 36.0915 19.1362C35.9469 19.2697 35.7908 19.3734 35.6152 19.444C35.4364 19.5179 35.2511 19.5493 35.0479 19.5493C34.8447 19.5493 34.661 19.5116 34.4789 19.4393C34.3017 19.3655 34.1473 19.2681 34.0173 19.1487C33.8287 18.9744 33.684 18.7623 33.5832 18.5126C33.4759 18.2644 33.4239 17.9833 33.4239 17.6675C33.4239 17.3832 33.4776 17.1162 33.5767 16.8571C33.6775 16.5995 33.8254 16.3827 34.0043 16.2099C34.1457 16.0686 34.305 15.9649 34.4806 15.8926C34.661 15.8204 34.8463 15.7858 35.0495 15.7858C35.2527 15.7858 35.4494 15.8204 35.6185 15.8926C35.7875 15.9633 35.9387 16.0623 36.0753 16.1879C36.2785 16.3764 36.4264 16.6089 36.5239 16.879C36.6247 17.1539 36.6719 17.4335 36.6719 17.7178C36.6719 18.0021 36.6182 18.2848 36.5109 18.5283L36.5126 18.5314ZM37.0864 16.7188C36.971 16.4204 36.8052 16.1628 36.5808 15.9429C36.389 15.7528 36.1663 15.6052 35.9013 15.4984C35.6412 15.3963 35.3584 15.3413 35.0495 15.3413C34.7407 15.3413 34.4611 15.3994 34.1912 15.5109C33.9181 15.6209 33.6775 15.7858 33.4857 15.9916C33.2711 16.2131 33.1086 16.4644 33.0013 16.7393C32.8923 17.0157 32.8403 17.3236 32.8403 17.6644C32.8403 18.0414 32.907 18.3838 33.0468 18.6869C33.1785 18.9948 33.3556 19.2461 33.5751 19.4409C33.7783 19.6294 34.0043 19.766 34.2514 19.8587C34.5001 19.9561 34.7667 20.0016 35.0479 20.0016C35.3291 20.0016 35.6087 19.9529 35.8623 19.8556C36.1127 19.7582 36.3484 19.6011 36.5743 19.3828C36.7759 19.1911 36.9417 18.9461 37.0669 18.6508C37.1937 18.354 37.2587 18.0272 37.2587 17.6723C37.2587 17.3361 37.1953 17.0173 37.0848 16.7204L37.0864 16.7188Z" fill="#BDBDBD"/>
<path d="M41.6413 18.5314C41.5324 18.7796 41.391 18.9807 41.2219 19.1362C41.0756 19.2697 40.9163 19.3734 40.744 19.444C40.5652 19.5179 40.3782 19.5493 40.1783 19.5493C39.9783 19.5493 39.7816 19.5116 39.6093 19.4393C39.4305 19.3655 39.2744 19.2681 39.146 19.1487C38.9591 18.9744 38.8128 18.7623 38.7087 18.5126C38.6014 18.2644 38.5494 17.9833 38.5494 17.6675C38.5494 17.3832 38.6014 17.1162 38.7055 16.8571C38.8063 16.5995 38.9493 16.3827 39.1314 16.2099C39.2728 16.0686 39.4337 15.9649 39.6077 15.8926C39.7816 15.8204 39.9718 15.7858 40.1766 15.7858C40.3815 15.7858 40.5733 15.8204 40.7472 15.8926C40.9147 15.9633 41.0675 16.0623 41.2024 16.1879C41.4056 16.3764 41.5535 16.6089 41.6543 16.879C41.7519 17.1539 41.8006 17.4335 41.8006 17.7178C41.8006 18.0021 41.747 18.2848 41.6381 18.5283L41.6413 18.5314ZM42.2119 16.7188C42.0981 16.4204 41.9307 16.1628 41.7096 15.9429C41.5178 15.7528 41.2918 15.6052 41.0285 15.4984C40.7667 15.3963 40.4839 15.3413 40.1783 15.3413C39.8727 15.3413 39.5882 15.3994 39.3151 15.5109C39.042 15.6209 38.8063 15.7858 38.6096 15.9916C38.395 16.2131 38.2357 16.4644 38.1284 16.7393C38.0227 17.0157 37.9707 17.3236 37.9707 17.6644C37.9707 18.0414 38.039 18.3838 38.1723 18.6869C38.3105 18.9948 38.486 19.2461 38.7055 19.4409C38.9038 19.6294 39.1314 19.766 39.3817 19.8587C39.6337 19.9561 39.8987 20.0016 40.1783 20.0016C40.4579 20.0016 40.7391 19.9529 40.9911 19.8556C41.243 19.7582 41.4853 19.6011 41.7096 19.3828C41.9047 19.1911 42.0705 18.9461 42.1973 18.6508C42.3257 18.354 42.3875 18.0272 42.3875 17.6723C42.3875 17.3361 42.3306 17.0173 42.2135 16.7204L42.2119 16.7188Z" fill="#BDBDBD"/>
<path d="M41.6413 18.5314C41.5324 18.7796 41.391 18.9807 41.2219 19.1362C41.0756 19.2697 40.9163 19.3734 40.744 19.444C40.5652 19.5179 40.3782 19.5493 40.1783 19.5493C39.9783 19.5493 39.7816 19.5116 39.6093 19.4393C39.4305 19.3655 39.2744 19.2681 39.146 19.1487C38.9591 18.9744 38.8128 18.7623 38.7087 18.5126C38.6014 18.2644 38.5494 17.9833 38.5494 17.6675C38.5494 17.3832 38.6014 17.1162 38.7055 16.8571C38.8063 16.5995 38.9493 16.3827 39.1314 16.2099C39.2728 16.0686 39.4337 15.9649 39.6077 15.8926C39.7816 15.8204 39.9718 15.7858 40.1766 15.7858C40.3815 15.7858 40.5733 15.8204 40.7472 15.8926C40.9147 15.9633 41.0675 16.0623 41.2024 16.1879C41.4056 16.3764 41.5535 16.6089 41.6543 16.879C41.7519 17.1539 41.8006 17.4335 41.8006 17.7178C41.8006 18.0021 41.747 18.2848 41.6381 18.5283L41.6413 18.5314ZM42.2119 16.7188C42.0981 16.4204 41.9307 16.1628 41.7096 15.9429C41.5178 15.7528 41.2918 15.6052 41.0285 15.4984C40.7667 15.3963 40.4839 15.3413 40.1783 15.3413C39.8727 15.3413 39.5882 15.3994 39.3151 15.5109C39.042 15.6209 38.8063 15.7858 38.6096 15.9916C38.395 16.2131 38.2357 16.4644 38.1284 16.7393C38.0227 17.0157 37.9707 17.3236 37.9707 17.6644C37.9707 18.0414 38.039 18.3838 38.1723 18.6869C38.3105 18.9948 38.486 19.2461 38.7055 19.4409C38.9038 19.6294 39.1314 19.766 39.3817 19.8587C39.6337 19.9561 39.8987 20.0016 40.1783 20.0016C40.4579 20.0016 40.7391 19.9529 40.9911 19.8556C41.243 19.7582 41.4853 19.6011 41.7096 19.3828C41.9047 19.1911 42.0705 18.9461 42.1973 18.6508C42.3257 18.354 42.3875 18.0272 42.3875 17.6723C42.3875 17.3361 42.3306 17.0173 42.2135 16.7204L42.2119 16.7188Z" fill="#BDBDBD"/>
<path d="M46.4826 18.5016C46.3266 18.7325 46.1169 18.921 45.86 19.0686C45.6503 19.1864 45.3984 19.2791 45.1041 19.3482C44.805 19.4126 44.5092 19.4472 44.2133 19.4472H44.0426C44.0361 18.8173 44.0361 18.3319 44.0345 17.9785C44.0328 17.6235 44.0328 17.3989 44.0328 17.2984V16.7534C44.0345 16.524 44.0361 16.2397 44.0426 15.8926H44.2165C44.4734 15.8926 44.7595 15.9225 45.0732 15.9853C45.3837 16.0465 45.6633 16.1518 45.9251 16.312C46.1998 16.4785 46.403 16.6795 46.5298 16.912C46.6533 17.1429 46.7183 17.3989 46.7183 17.6832C46.7183 17.9989 46.6371 18.2707 46.4826 18.5V18.5016ZM47.063 16.6984C46.8988 16.4094 46.6533 16.1659 46.3184 15.9602C46.034 15.7889 45.7072 15.6586 45.3431 15.5738C44.9773 15.4984 44.5628 15.4575 44.0897 15.4575C44.0767 15.4575 43.9776 15.4575 43.7923 15.4638C43.6086 15.4638 43.4997 15.4685 43.4801 15.4685C43.4883 15.9916 43.4915 16.4392 43.4915 16.8068V17.7131C43.4915 18.1544 43.4915 18.6225 43.4866 19.1157C43.4818 19.6074 43.4785 19.8618 43.4785 19.8728C43.4931 19.8728 43.5777 19.8728 43.7305 19.8775C43.8784 19.8822 44.0377 19.8854 44.1954 19.8854C44.6132 19.8854 44.992 19.8445 45.3285 19.766C45.6585 19.6812 45.9657 19.5634 46.2372 19.4095C46.5525 19.2288 46.8061 19.0011 47.0028 18.7058C47.2028 18.4136 47.2987 18.0759 47.2987 17.6911C47.2987 17.3063 47.2158 16.9858 47.0581 16.7L47.063 16.6984Z" fill="#BDBDBD"/>
<path d="M46.4826 18.5016C46.3266 18.7325 46.1169 18.921 45.86 19.0686C45.6503 19.1864 45.3984 19.2791 45.1041 19.3482C44.805 19.4126 44.5092 19.4472 44.2133 19.4472H44.0426C44.0361 18.8173 44.0361 18.3319 44.0345 17.9785C44.0328 17.6235 44.0328 17.3989 44.0328 17.2984V16.7534C44.0345 16.524 44.0361 16.2397 44.0426 15.8926H44.2165C44.4734 15.8926 44.7595 15.9225 45.0732 15.9853C45.3837 16.0465 45.6633 16.1518 45.9251 16.312C46.1998 16.4785 46.403 16.6795 46.5298 16.912C46.6533 17.1429 46.7183 17.3989 46.7183 17.6832C46.7183 17.9989 46.6371 18.2707 46.4826 18.5V18.5016ZM47.063 16.6984C46.8988 16.4094 46.6533 16.1659 46.3184 15.9602C46.034 15.7889 45.7072 15.6586 45.3431 15.5738C44.9773 15.4984 44.5628 15.4575 44.0897 15.4575C44.0767 15.4575 43.9776 15.4575 43.7923 15.4638C43.6086 15.4638 43.4997 15.4685 43.4801 15.4685C43.4883 15.9916 43.4915 16.4392 43.4915 16.8068V17.7131C43.4915 18.1544 43.4915 18.6225 43.4866 19.1157C43.4818 19.6074 43.4785 19.8618 43.4785 19.8728C43.4931 19.8728 43.5777 19.8728 43.7305 19.8775C43.8784 19.8822 44.0377 19.8854 44.1954 19.8854C44.6132 19.8854 44.992 19.8445 45.3285 19.766C45.6585 19.6812 45.9657 19.5634 46.2372 19.4095C46.5525 19.2288 46.8061 19.0011 47.0028 18.7058C47.2028 18.4136 47.2987 18.0759 47.2987 17.6911C47.2987 17.3063 47.2158 16.9858 47.0581 16.7L47.063 16.6984Z" fill="#BDBDBD"/>
<path d="M50.7236 18.6304C50.7236 18.8581 50.6699 19.0529 50.5529 19.2272C50.4423 19.3937 50.2928 19.532 50.1091 19.6356C49.9351 19.7314 49.7417 19.8068 49.519 19.8555C49.2995 19.9058 49.0541 19.9325 48.7826 19.9325C48.6412 19.9325 48.4867 19.9262 48.3356 19.9137C48.1746 19.9027 48.082 19.8948 48.056 19.8948L48.0283 19.433C48.0641 19.4409 48.1502 19.4519 48.2982 19.4629C48.4445 19.477 48.6168 19.4801 48.8151 19.4801C48.9322 19.4801 49.0915 19.466 49.28 19.4314C49.4751 19.4016 49.6182 19.3639 49.7206 19.3136C49.8571 19.2477 49.9563 19.1723 50.0294 19.0827C50.1026 18.9885 50.14 18.8723 50.14 18.7356C50.14 18.5848 50.1026 18.4654 50.0294 18.3618C49.9579 18.2628 49.8376 18.1607 49.6718 18.0649C49.5629 18.0052 49.428 17.9345 49.2573 17.8591C49.0833 17.7838 48.9322 17.7036 48.794 17.622C48.5615 17.4885 48.3957 17.3361 48.2982 17.179C48.199 17.0157 48.1454 16.8382 48.1454 16.6403C48.1454 16.4424 48.1958 16.2617 48.2803 16.1172C48.3697 15.9664 48.49 15.8439 48.6347 15.7355C48.781 15.6303 48.9582 15.5533 49.1711 15.4984C49.3792 15.4497 49.6165 15.4214 49.8734 15.4214C50.0148 15.4214 50.1611 15.423 50.3042 15.4292C50.4505 15.4371 50.5301 15.4434 50.5513 15.4434L50.6016 15.9177C50.5805 15.913 50.4976 15.9036 50.3497 15.8895C50.2034 15.8753 50.0229 15.8722 49.81 15.8722C49.6816 15.8722 49.5548 15.8848 49.4182 15.9115C49.2768 15.9382 49.1614 15.9821 49.059 16.0403C48.9679 16.0937 48.885 16.1628 48.8281 16.2554C48.7631 16.345 48.729 16.4518 48.729 16.5774C48.729 16.6842 48.7631 16.7848 48.8281 16.8822C48.9013 16.9858 49.0248 17.0879 49.2085 17.1963C49.3012 17.2481 49.4263 17.3125 49.5791 17.3816C49.7336 17.4539 49.8864 17.5309 50.0327 17.6157C50.2603 17.7429 50.4293 17.8921 50.5464 18.0586C50.6569 18.2283 50.7203 18.4183 50.7203 18.6319L50.7236 18.6304Z" fill="#BDBDBD"/>
<path d="M50.7236 18.6304C50.7236 18.8581 50.6699 19.0529 50.5529 19.2272C50.4423 19.3937 50.2928 19.532 50.1091 19.6356C49.9351 19.7314 49.7417 19.8068 49.519 19.8555C49.2995 19.9058 49.0541 19.9325 48.7826 19.9325C48.6412 19.9325 48.4867 19.9262 48.3356 19.9137C48.1746 19.9027 48.082 19.8948 48.056 19.8948L48.0283 19.433C48.0641 19.4409 48.1502 19.4519 48.2982 19.4629C48.4445 19.477 48.6168 19.4801 48.8151 19.4801C48.9322 19.4801 49.0915 19.466 49.28 19.4314C49.4751 19.4016 49.6182 19.3639 49.7206 19.3136C49.8571 19.2477 49.9563 19.1723 50.0294 19.0827C50.1026 18.9885 50.14 18.8723 50.14 18.7356C50.14 18.5848 50.1026 18.4654 50.0294 18.3618C49.9579 18.2628 49.8376 18.1607 49.6718 18.0649C49.5629 18.0052 49.428 17.9345 49.2573 17.8591C49.0833 17.7838 48.9322 17.7036 48.794 17.622C48.5615 17.4885 48.3957 17.3361 48.2982 17.179C48.199 17.0157 48.1454 16.8382 48.1454 16.6403C48.1454 16.4424 48.1958 16.2617 48.2803 16.1172C48.3697 15.9664 48.49 15.8439 48.6347 15.7355C48.781 15.6303 48.9582 15.5533 49.1711 15.4984C49.3792 15.4497 49.6165 15.4214 49.8734 15.4214C50.0148 15.4214 50.1611 15.423 50.3042 15.4292C50.4505 15.4371 50.5301 15.4434 50.5513 15.4434L50.6016 15.9177C50.5805 15.913 50.4976 15.9036 50.3497 15.8895C50.2034 15.8753 50.0229 15.8722 49.81 15.8722C49.6816 15.8722 49.5548 15.8848 49.4182 15.9115C49.2768 15.9382 49.1614 15.9821 49.059 16.0403C48.9679 16.0937 48.885 16.1628 48.8281 16.2554C48.7631 16.345 48.729 16.4518 48.729 16.5774C48.729 16.6842 48.7631 16.7848 48.8281 16.8822C48.9013 16.9858 49.0248 17.0879 49.2085 17.1963C49.3012 17.2481 49.4263 17.3125 49.5791 17.3816C49.7336 17.4539 49.8864 17.5309 50.0327 17.6157C50.2603 17.7429 50.4293 17.8921 50.5464 18.0586C50.6569 18.2283 50.7203 18.4183 50.7203 18.6319L50.7236 18.6304Z" fill="#BDBDBD"/>
<path d="M12.0717 3.9209C11.7498 3.08057 11.2638 2.33919 10.6347 1.71561C10.0966 1.17999 9.44475 0.755899 8.7051 0.454321C7.96545 0.151172 7.1494 0.00195312 6.28132 0.00195312C5.41325 0.00195312 4.6037 0.162167 3.82829 0.482594C3.05938 0.803021 2.38151 1.26324 1.81905 1.85069C1.2192 2.47741 0.759156 3.19523 0.45842 3.97588C0.156058 4.76595 0 5.64241 0 6.59584C0 7.66865 0.198323 8.64563 0.575463 9.50325C0.96073 10.3656 1.46954 11.0897 2.09703 11.6536C2.66111 12.1719 3.30322 12.5709 4.01524 12.8363C4.72237 13.1002 5.48641 13.2353 6.2797 13.2353C7.07299 13.2353 7.87279 13.0955 8.58643 12.8159C9.30332 12.5363 9.98932 12.0902 10.6201 11.4824C11.1955 10.9357 11.6637 10.2336 12.0229 9.39173C12.3822 8.55139 12.561 7.61524 12.561 6.61155C12.561 5.6644 12.3952 4.76124 12.0717 3.9209ZM10.2218 8.97077C9.9308 9.63519 9.54716 10.1881 9.08711 10.6106C8.7051 10.9703 8.26943 11.2483 7.79964 11.4415C7.32984 11.6347 6.8129 11.7305 6.2732 11.7305C5.7335 11.7305 5.21818 11.6284 4.74513 11.4337C4.27046 11.2373 3.85105 10.9719 3.5048 10.6499C2.99598 10.1802 2.60096 9.60534 2.32298 8.92836C2.04176 8.25295 1.8987 7.47388 1.8987 6.61312C1.8987 5.85289 2.0385 5.10994 2.31161 4.40626C2.58471 3.70886 2.96997 3.11669 3.46091 2.63919C3.84292 2.27165 4.27858 1.98577 4.75001 1.79572C5.21818 1.60095 5.7335 1.5067 6.28132 1.5067C6.82915 1.5067 7.35585 1.60095 7.80939 1.78786C8.26131 1.97478 8.67746 2.24494 9.0416 2.58579C9.58455 3.08842 9.99582 3.71828 10.264 4.46437C10.5339 5.21204 10.6672 5.9864 10.6672 6.76077C10.6672 7.53513 10.5193 8.31421 10.2234 8.97077H10.2218Z" fill="#BDBDBD"/>
<path d="M12.0717 3.9209C11.7498 3.08057 11.2638 2.33919 10.6347 1.71561C10.0966 1.17999 9.44475 0.755899 8.7051 0.454321C7.96545 0.151172 7.1494 0.00195312 6.28132 0.00195312C5.41325 0.00195312 4.6037 0.162167 3.82829 0.482594C3.05938 0.803021 2.38151 1.26324 1.81905 1.85069C1.2192 2.47741 0.759156 3.19523 0.45842 3.97588C0.156058 4.76595 0 5.64241 0 6.59584C0 7.66865 0.198323 8.64563 0.575463 9.50325C0.96073 10.3656 1.46954 11.0897 2.09703 11.6536C2.66111 12.1719 3.30322 12.5709 4.01524 12.8363C4.72237 13.1002 5.48641 13.2353 6.2797 13.2353C7.07299 13.2353 7.87279 13.0955 8.58643 12.8159C9.30332 12.5363 9.98932 12.0902 10.6201 11.4824C11.1955 10.9357 11.6637 10.2336 12.0229 9.39173C12.3822 8.55139 12.561 7.61524 12.561 6.61155C12.561 5.6644 12.3952 4.76124 12.0717 3.9209ZM10.2218 8.97077C9.9308 9.63519 9.54716 10.1881 9.08711 10.6106C8.7051 10.9703 8.26943 11.2483 7.79964 11.4415C7.32984 11.6347 6.8129 11.7305 6.2732 11.7305C5.7335 11.7305 5.21818 11.6284 4.74513 11.4337C4.27046 11.2373 3.85105 10.9719 3.5048 10.6499C2.99598 10.1802 2.60096 9.60534 2.32298 8.92836C2.04176 8.25295 1.8987 7.47388 1.8987 6.61312C1.8987 5.85289 2.0385 5.10994 2.31161 4.40626C2.58471 3.70886 2.96997 3.11669 3.46091 2.63919C3.84292 2.27165 4.27858 1.98577 4.75001 1.79572C5.21818 1.60095 5.7335 1.5067 6.28132 1.5067C6.82915 1.5067 7.35585 1.60095 7.80939 1.78786C8.26131 1.97478 8.67746 2.24494 9.0416 2.58579C9.58455 3.08842 9.99582 3.71828 10.264 4.46437C10.5339 5.21204 10.6672 5.9864 10.6672 6.76077C10.6672 7.53513 10.5193 8.31421 10.2234 8.97077H10.2218Z" fill="#BDBDBD"/>
<path d="M16.4725 0.296892L15.3914 0.325165L15.3882 0.452394L15.437 4.96351V6.65989L15.4174 10.5993L15.3882 12.8642H17.2332L17.2072 10.0228L17.1861 6.60805L17.1926 4.72319C17.1926 4.72319 17.2284 2.01683 17.2316 1.77965H17.8819L18.9889 1.81892C19.3807 1.84562 19.7578 1.92573 20.1073 2.05296C20.5283 2.20375 20.86 2.43779 21.0989 2.7535C21.3395 3.07236 21.4566 3.44933 21.4566 3.89227C21.4566 4.38234 21.3785 4.77188 21.2192 5.05618C21.0502 5.34676 20.8502 5.60122 20.6291 5.79442C20.3658 6.02217 20.039 6.24207 19.6489 6.43999C19.262 6.63947 18.9466 6.77141 18.719 6.82795L18.6264 6.85151L18.6036 7.08084L22.5506 11.4333L24.1193 13.1218L24.2168 13.0354L25.501 12.0019L23.7421 10.2223C22.7473 9.21545 21.8239 8.22747 20.9868 7.27875C21.4598 6.99759 21.9621 6.58606 22.4823 6.04416C23.0561 5.43944 23.352 4.67921 23.352 3.78232C23.352 3.08335 23.1553 2.46606 22.7765 1.94615C22.3929 1.42938 21.876 1.03356 21.2257 0.768109C20.7234 0.562344 20.2 0.425692 19.6684 0.364433C19.1433 0.306317 18.6004 0.274902 18.0444 0.274902L16.4692 0.295322L16.4725 0.296892Z" fill="#BDBDBD"/>
<path d="M16.4725 0.296892L15.3914 0.325165L15.3882 0.452394L15.437 4.96351V6.65989L15.4174 10.5993L15.3882 12.8642H17.2332L17.2072 10.0228L17.1861 6.60805L17.1926 4.72319C17.1926 4.72319 17.2284 2.01683 17.2316 1.77965H17.8819L18.9889 1.81892C19.3807 1.84562 19.7578 1.92573 20.1073 2.05296C20.5283 2.20375 20.86 2.43779 21.0989 2.7535C21.3395 3.07236 21.4566 3.44933 21.4566 3.89227C21.4566 4.38234 21.3785 4.77188 21.2192 5.05618C21.0502 5.34676 20.8502 5.60122 20.6291 5.79442C20.3658 6.02217 20.039 6.24207 19.6489 6.43999C19.262 6.63947 18.9466 6.77141 18.719 6.82795L18.6264 6.85151L18.6036 7.08084L22.5506 11.4333L24.1193 13.1218L24.2168 13.0354L25.501 12.0019L23.7421 10.2223C22.7473 9.21545 21.8239 8.22747 20.9868 7.27875C21.4598 6.99759 21.9621 6.58606 22.4823 6.04416C23.0561 5.43944 23.352 4.67921 23.352 3.78232C23.352 3.08335 23.1553 2.46606 22.7765 1.94615C22.3929 1.42938 21.876 1.03356 21.2257 0.768109C20.7234 0.562344 20.2 0.425692 19.6684 0.364433C19.1433 0.306317 18.6004 0.274902 18.0444 0.274902L16.4692 0.295322L16.4725 0.296892Z" fill="#BDBDBD"/>
<path d="M32.7071 11.2715C31.961 11.1349 31.2457 10.8977 30.5792 10.571C29.8412 10.205 29.2251 9.68826 28.7585 9.03955C28.2952 8.39398 28.0595 7.56621 28.0595 6.57352C28.0595 5.79287 28.2855 5.04992 28.7341 4.35723C29.1828 3.65983 29.8135 3.10379 30.6052 2.70169C31.1888 2.40168 31.8894 2.17235 32.6746 2.01685C33.4679 1.85978 34.3506 1.78282 35.3032 1.78282H36.1859L36.0461 0.205811H35.113C34.1035 0.205811 33.12 0.300054 32.1885 0.48697C31.2522 0.673886 30.4053 0.959757 29.6689 1.33045C28.5878 1.87706 27.7198 2.60587 27.1004 3.49804C26.4762 4.39493 26.1641 5.42218 26.1641 6.55781C26.1641 7.47668 26.3282 8.30916 26.6566 9.02855C26.9785 9.74794 27.4158 10.3621 27.949 10.8427C28.8073 11.636 29.8395 12.1936 31.0067 12.5093C31.605 12.6726 32.2601 12.7951 32.9623 12.8721C32.9623 12.8721 34.9 13.0779 36.6719 12.6444L36.6606 11.5103L36.6524 9.44637L36.6687 7.98245L36.6996 6.30649L34.8513 6.30335L34.8903 10.1846C34.8903 10.1846 34.8984 11.0768 34.9 11.303C33.9556 11.5166 32.7071 11.2747 32.7071 11.2747V11.2715Z" fill="#BDBDBD"/>
<path d="M32.7071 11.2715C31.961 11.1349 31.2457 10.8977 30.5792 10.571C29.8412 10.205 29.2251 9.68826 28.7585 9.03955C28.2952 8.39398 28.0595 7.56621 28.0595 6.57352C28.0595 5.79287 28.2855 5.04992 28.7341 4.35723C29.1828 3.65983 29.8135 3.10379 30.6052 2.70169C31.1888 2.40168 31.8894 2.17235 32.6746 2.01685C33.4679 1.85978 34.3506 1.78282 35.3032 1.78282H36.1859L36.0461 0.205811H35.113C34.1035 0.205811 33.12 0.300054 32.1885 0.48697C31.2522 0.673886 30.4053 0.959757 29.6689 1.33045C28.5878 1.87706 27.7198 2.60587 27.1004 3.49804C26.4762 4.39493 26.1641 5.42218 26.1641 6.55781C26.1641 7.47668 26.3282 8.30916 26.6566 9.02855C26.9785 9.74794 27.4158 10.3621 27.949 10.8427C28.8073 11.636 29.8395 12.1936 31.0067 12.5093C31.605 12.6726 32.2601 12.7951 32.9623 12.8721C32.9623 12.8721 34.9 13.0779 36.6719 12.6444L36.6606 11.5103L36.6524 9.44637L36.6687 7.98245L36.6996 6.30649L34.8513 6.30335L34.8903 10.1846C34.8903 10.1846 34.8984 11.0768 34.9 11.303C33.9556 11.5166 32.7071 11.2747 32.7071 11.2747V11.2715Z" fill="#BDBDBD"/>
<path d="M49.0395 8.20068L45.2811 0.160156H43.8701L40.1149 8.07502L38.0293 12.3867L38.1415 12.4463L39.5574 13.172L40.2174 11.7332C40.2174 11.7332 41.6528 8.64834 41.7194 8.50226H47.1343C47.2026 8.64677 48.599 11.6783 48.599 11.6783L49.2622 13.1626L49.3922 13.1076L50.9983 12.3238L49.0379 8.20225L49.0395 8.20068ZM42.3859 7.05877C42.5306 6.74148 43.4052 4.84091 43.4052 4.84091C43.4052 4.84091 44.2716 2.97018 44.4488 2.59635C44.6227 2.97489 45.5071 4.91002 45.5071 4.91002C45.5071 4.91002 46.3377 6.74619 46.4759 7.05877H42.3843H42.3859Z" fill="#BDBDBD"/>
<path d="M49.0395 8.20068L45.2811 0.160156H43.8701L40.1149 8.07502L38.0293 12.3867L38.1415 12.4463L39.5574 13.172L40.2174 11.7332C40.2174 11.7332 41.6528 8.64834 41.7194 8.50226H47.1343C47.2026 8.64677 48.599 11.6783 48.599 11.6783L49.2622 13.1626L49.3922 13.1076L50.9983 12.3238L49.0379 8.20225L49.0395 8.20068ZM42.3859 7.05877C42.5306 6.74148 43.4052 4.84091 43.4052 4.84091C43.4052 4.84091 44.2716 2.97018 44.4488 2.59635C44.6227 2.97489 45.5071 4.91002 45.5071 4.91002C45.5071 4.91002 46.3377 6.74619 46.4759 7.05877H42.3843H42.3859Z" fill="#BDBDBD"/>
</g>
<defs>
<clipPath id="clip0_1638_35386">
<rect width="51" height="20" fill="white"/>
</clipPath>
</defs>
</svg>
