<svg width="162" height="28" viewBox="0 0 162 28" fill="none" xmlns="http://www.w3.org/2000/svg">
<g clip-path="url(#clip0_698_1410)">
<path d="M123.571 12.4321C122.256 12.4321 121.234 12.6111 120.287 12.9835C116.656 14.4271 114.85 18.8648 114.995 22.3063C115.143 25.8171 117.396 27.9421 121.031 27.997C123.275 28.0316 125.316 27.1914 126.788 25.6728C128.599 23.8019 129.653 20.9147 129.537 18.143C129.386 14.5657 127.133 12.4292 123.571 12.4292V12.4321ZM118.531 22.595C118.307 19.9503 119.672 15.071 123.188 14.7563C123.26 14.7505 123.327 14.7505 123.394 14.7476C125.449 14.814 125.922 16.6849 126.015 17.8109C126.233 20.3979 124.834 25.3812 121.382 25.6901C121.315 25.6959 121.254 25.6959 121.19 25.6987C119.025 25.6295 118.606 23.516 118.528 22.595H118.531Z" fill="#231F20"/>
<path d="M160.409 13.1626C159.747 12.7584 158.868 12.5014 157.936 12.4379C157.744 12.4264 157.55 12.4235 157.352 12.4264C156.29 12.4062 155.175 12.6169 154.063 13.0616C150.8 14.3666 148.561 17.6435 148.358 21.4113C148.257 23.3111 148.776 24.9597 149.862 26.1839C150.852 27.2983 152.283 27.8238 153.781 27.9393C153.781 27.9393 154.069 27.9652 154.522 27.9624C155.491 27.9768 157.701 27.8526 159.268 26.6169C160.078 25.9789 160.319 24.5295 159.675 23.7182L159.669 23.724C159.669 23.724 159.669 23.7182 159.666 23.7182C159.666 23.7182 157.622 25.3697 155.305 25.4707C155.03 25.4649 154.748 25.4476 154.455 25.3956C151.987 24.9568 151.784 22.6095 151.784 21.9714C151.941 21.9714 152.097 21.9743 152.254 21.9714C155.57 21.9772 158.531 21.0966 160.189 19.6155C161.251 18.6656 161.887 17.7966 161.994 16.1595C162.128 14.1067 160.418 13.1626 160.409 13.1597V13.1626ZM152.01 19.8782C152.527 17.632 153.97 16.1942 154.525 15.8073C155.375 15.2183 157.285 14.3204 158.458 15.2096C158.749 15.4291 158.923 15.8997 158.888 16.3443C158.818 17.2105 158.09 18.091 156.882 18.7667C155.201 19.705 153.462 19.884 152.431 19.8955C152.26 19.8955 152.115 19.8869 152.005 19.8811L152.01 19.8782Z" fill="#231F20"/>
<path d="M40.5662 3.69873C40.3484 3.69873 40.1365 3.69873 39.9304 3.69873C36.8472 3.69873 34.9514 4.10871 34.9514 4.10871L30.8115 27.495H32.8757C33.8657 27.495 34.545 27.0301 34.7511 25.8608C34.9108 24.96 36.1069 18.178 36.1853 17.7449C37.0214 17.7911 37.7878 17.82 38.6791 17.8171C44.259 17.8027 47.6064 14.3294 48.2538 10.885C49.1741 5.98539 45.159 3.7507 40.5604 3.70162L40.5662 3.69873ZM36.6614 15.0772L38.2059 6.33474C38.2059 6.33474 38.8214 6.17305 39.9536 6.16151C40.1336 6.16151 40.3252 6.17017 40.5284 6.17883C42.7726 6.2972 45.1967 7.32216 44.4681 10.7695C44.1632 12.2102 43.1094 13.6249 41.8697 14.338C40.0639 15.3774 37.3321 15.1609 36.6585 15.0743L36.6614 15.0772Z" fill="#231F20"/>
<path d="M92.5009 12.614C89.6471 12.3888 88.0184 14.2077 86.9675 15.8794C86.8601 14.8284 86.5175 14.0114 85.9427 13.4426C85.3824 12.8911 84.6014 12.6168 83.6985 12.5966C81.225 12.5476 79.6312 14.1297 78.4177 16.2922C78.4293 16.2085 78.4438 16.1219 78.4554 16.0411C78.6673 14.5108 78.5831 13.9334 78.1186 13.3329C78.1186 13.3329 77.7006 12.7294 76.5016 12.7785C76.069 12.7641 75.5203 12.8334 74.8293 13.073C75.2242 13.5148 75.2242 14.3578 74.8555 16.9303C74.8322 17.0978 73.131 26.7959 73.131 26.7959C73.131 26.7959 73.0207 27.4541 73.7116 27.4541H76.3738C76.3738 27.4541 76.7222 25.4129 76.7861 25.0809C77.0851 23.7268 77.3174 22.3236 78.1622 20.3488C79.8983 16.2951 82.6098 14.6263 83.4343 15.556C83.713 15.8707 83.7479 16.6531 83.5824 17.7416L81.9857 26.793C81.9857 26.793 81.8753 27.4512 82.5663 27.4512H85.2256L85.5682 25.4764C86.1372 22.0868 86.9414 20.1697 86.9414 20.1697C88.4742 16.5117 90.5384 14.9757 91.421 15.2702C91.6358 15.3424 92.0132 15.5474 92.1729 16.2345C92.2629 16.6589 92.2687 17.3547 92.1381 18.1285C91.9958 19.1939 91.3165 22.1561 91.0058 24.3793C90.7939 25.9095 90.8781 26.4869 91.3426 27.0875C91.3426 27.0875 91.7606 27.6909 92.9597 27.6418C93.3922 27.6562 93.9409 27.5869 94.6319 27.3473C94.237 26.9056 94.1906 25.9643 94.5941 23.4727C94.8409 21.954 95.1922 20.3285 95.1922 20.3285C95.6886 17.9235 95.857 15.8678 95.3344 14.6032C94.6957 13.0586 93.189 12.6659 92.5068 12.614H92.5009Z" fill="#231F20"/>
<path d="M142.659 12.6168C139.834 12.3945 138.046 14.1615 136.795 16.3298C136.809 16.2345 136.824 16.1363 136.838 16.0439C137.05 14.5137 136.931 13.8121 136.502 13.3357C135.674 12.4176 133.906 12.8362 133.212 13.0788C133.607 13.5205 133.607 14.3636 133.238 16.9361C133.189 17.2854 133.131 17.6579 133.067 18.0014H133.073L131.531 26.7987C131.531 26.7987 131.421 27.457 132.112 27.457H134.768C134.768 27.457 135.117 25.4157 135.181 25.0837C135.48 23.7296 135.822 22.286 136.65 20.3054C138.365 16.1998 140.891 14.9468 141.672 15.2932C141.989 15.4347 142.227 15.7523 142.328 16.2374C142.418 16.6618 142.424 17.3576 142.293 18.1314C142.151 19.1967 141.472 22.159 141.161 24.3821C140.949 25.9123 141.033 26.4898 141.498 27.0903C141.498 27.0903 141.916 27.6937 143.115 27.6447C143.548 27.6591 144.096 27.5898 144.787 27.3502C144.392 26.9084 144.346 25.9672 144.749 23.4756C144.996 21.9569 145.348 20.3314 145.348 20.3314C145.844 17.9264 146.024 15.8649 145.49 14.6061C144.837 13.0643 143.272 12.6659 142.662 12.6197L142.659 12.6168Z" fill="#231F20"/>
<path d="M61.1789 13.1857C60.186 13.2464 58.9521 13.3532 58.9521 13.3532L58.6502 15.0913C58.5544 15.6283 58.4354 16.2144 58.3163 16.7918C58.0696 17.7562 57.7415 18.8215 57.1899 20.1121C55.4538 24.1657 53.1313 25.3437 52.2574 25.156C51.97 25.0954 51.6652 24.85 51.5113 24.1802C51.4213 23.7557 51.4155 23.0599 51.5462 22.2862C51.6884 21.2208 52.3677 18.2585 52.6813 16.0354C52.8932 14.5052 52.809 13.9277 52.3445 13.3272C52.3445 13.3272 51.9265 12.7238 50.7275 12.7729C50.2949 12.7584 49.7462 12.8277 49.0552 13.0674C49.4501 13.5091 49.4965 14.4503 49.093 16.942C48.8462 18.4606 48.7301 18.7898 48.4949 20.0861C48.2278 21.5615 47.952 23.1408 48.0594 24.593C48.1959 26.3917 49.4472 27.6246 51.1803 27.7978C53.9151 28.0721 55.7877 26.2474 57.0331 24.1455C57.0215 24.2206 57.0099 24.2985 56.9983 24.3707C56.7864 25.9009 56.8706 26.4784 57.3351 27.0789C57.3351 27.0789 57.7531 27.6823 58.9521 27.6332C59.3847 27.6477 59.9334 27.5784 60.6244 27.3387C60.2295 26.897 60.2295 26.0539 60.5982 23.4815C60.6476 23.1321 60.7057 22.7597 60.7695 22.4161H60.7637L61.7363 16.8063L62.1747 14.3319C62.2879 13.7083 62.0759 13.1309 61.176 13.1857H61.1789Z" fill="#231F20"/>
<path d="M112.031 13.1857C111.038 13.2464 109.804 13.3532 109.804 13.3532L109.502 15.0913C109.406 15.6283 109.287 16.2144 109.168 16.7918C108.922 17.7562 108.594 18.8215 108.042 20.1121C106.306 24.1657 103.983 25.3437 103.109 25.156C102.822 25.0954 102.517 24.85 102.363 24.1802C102.273 23.7557 102.268 23.0599 102.398 22.2862C102.54 21.2208 103.22 18.2585 103.533 16.0354C103.745 14.5052 103.661 13.9277 103.197 13.3272C103.197 13.3272 102.779 12.7238 101.58 12.7729C101.147 12.7584 100.598 12.8277 99.9073 13.0674C100.302 13.5091 100.349 14.4503 99.945 16.942C99.6983 18.4606 99.5821 18.7898 99.347 20.0861C99.0799 21.5615 98.8041 23.1408 98.9115 24.593C99.0479 26.3917 100.299 27.6246 102.032 27.7978C104.767 28.0721 106.64 26.2474 107.885 24.1455C107.874 24.2206 107.862 24.2985 107.85 24.3707C107.638 25.9009 107.723 26.4784 108.187 27.0789C108.187 27.0789 108.605 27.6823 109.804 27.6332C110.237 27.6477 110.786 27.5784 111.476 27.3387C111.082 26.897 111.082 26.0539 111.45 23.4815C111.5 23.1321 111.558 22.7597 111.622 22.4161H111.616L112.588 16.8063L113.027 14.3319C113.14 13.7083 112.928 13.1309 112.028 13.1857H112.031Z" fill="#231F20"/>
<path d="M71.6302 3.49341C71.5489 3.49341 71.4531 3.49918 71.3399 3.52228L68.6603 4.07373L65.011 24.645C64.8281 25.8201 64.8978 26.2907 65.1271 26.7526C65.3507 27.1511 65.7019 27.3792 66.0852 27.5033C66.4974 27.6332 66.9242 27.6621 67.2958 27.6534C68.0013 27.6737 68.5703 27.5177 68.5703 27.5177C68.5703 27.5177 68.2074 26.3889 68.5093 24.6103L72.0541 4.61075C72.1557 4.03909 72.2138 3.49341 71.6331 3.4963L71.6302 3.49341Z" fill="#231F20"/>
<path d="M10.0479 7.13422L10.3295 3.94965C10.4514 2.50027 10.5356 1.48398 10.5501 1.27033C10.5588 1.14907 10.5501 1.02781 10.524 0.918093C10.4572 0.623599 10.2511 0.441706 10.2511 0.441706C10.0072 0.196295 9.4208 -0.15883 8.17534 0.0721452C8.13179 0.0808068 7.65857 0.173197 7.24922 0.415721C7.10697 0.502337 6.77601 0.724651 6.60182 1.02492C6.4973 1.21547 6.3115 1.64855 6.24182 2.39922L5.97473 6.94655L5.75119 10.5786C5.75119 10.5786 5.59732 12.8682 5.54216 13.5294C5.43184 14.7622 5.30119 16.3559 5.17055 18.0478C5.17055 18.0478 1.98287 18.1951 1.48352 18.2182C1.25127 18.2326 0.017419 18.3365 0 19.0901C0 19.1334 0.00290317 19.1796 0.00870952 19.2287C0.0725793 19.7628 0.330962 20.1295 0.65902 20.3807C0.734503 20.4384 0.847727 20.5077 0.873855 20.525C1.68384 21.013 2.84221 20.9899 2.84221 20.9899C2.84221 20.9899 3.65219 20.9899 4.96152 20.9899L4.65379 25.4073C4.63637 25.7162 4.61895 26.0107 4.60443 26.285C4.58121 26.7383 4.56669 27.2435 4.73217 27.5322C4.85991 27.7574 5.06313 27.7921 5.25184 27.8152C6.01828 27.9076 6.88052 27.9451 7.54244 26.9894C8.13759 26.1291 8.34082 25.1532 8.51791 23.8713C8.55855 23.5797 8.63404 22.8983 8.71823 22.139L9.62402 11.9183C9.76047 10.7807 10.5937 10.6162 10.913 10.596C10.913 10.596 11.0175 10.5902 11.1511 10.596L10.045 7.13422H10.0479Z" fill="#80C342"/>
<path d="M24.7175 7.80978C24.2327 7.78668 22.9292 7.72605 21.1844 7.64521L21.5444 2.45115C21.5618 2.14222 21.5792 1.84772 21.5937 1.57344C21.617 1.12015 21.6315 0.614891 21.466 0.326172C21.3382 0.100971 21.135 0.0663245 20.9463 0.0432269C20.1799 -0.0491632 19.3176 -0.0866968 18.6557 0.868964C18.0606 1.72935 17.8573 2.70522 17.6802 3.98713C17.6396 4.27874 17.5641 4.96012 17.4799 5.71945L17.3261 7.4662C11.3513 7.19192 3.86114 6.84834 2.816 6.80215C2.816 6.80215 2.21504 6.78771 1.84634 6.82236C0.769263 6.97249 0.327981 7.54993 0.145081 7.99456C0.142177 8.00322 -0.0465288 8.57488 0.00863147 9.2476C0.00863147 9.2476 0.0434696 9.74131 0.21766 10.0069C0.383141 10.235 0.746038 10.5468 1.51248 10.5757C1.58505 10.5757 5.61176 10.5757 10.1901 10.5757C10.1901 10.5757 12.7565 10.6132 12.8 10.6161C12.8 10.6161 17.1983 10.5959 17.2274 14.0432C17.2274 14.0432 17.3348 16.7197 14.3445 17.4876C14.3445 17.4876 13.8626 17.6378 13.0526 17.6811L16.13 20.984L15.8716 23.903C15.7496 25.3524 15.6654 26.3687 15.6509 26.5823C15.6422 26.7036 15.6509 26.8248 15.6771 26.9345C15.7438 27.229 15.95 27.4109 15.95 27.4109C16.1938 27.6563 16.7803 28.0115 18.0257 27.7805C18.0693 27.7718 18.5425 27.6794 18.9518 27.4369C19.0941 27.3503 19.4251 27.128 19.5992 26.8277C19.7038 26.6372 19.8896 26.2041 19.9592 25.4534L20.2205 20.984L20.4499 17.274C20.5283 16.0556 20.6037 14.9873 20.6589 14.3233C20.7518 13.2781 20.8592 11.976 20.9695 10.5728H23.356C23.356 10.5728 24.5143 10.593 25.3243 10.108C25.3504 10.0907 25.4637 10.0214 25.5391 9.96362C25.8672 9.71244 26.1227 9.34576 26.1894 8.81163C26.1953 8.76255 26.1982 8.71636 26.1982 8.67305C26.1836 7.91949 24.9498 7.81555 24.7146 7.80112L24.7175 7.80978Z" fill="#009333"/>
<path d="M26.0528 18.4088C25.8728 17.9641 25.4315 17.3867 24.3515 17.2366C23.9799 17.2019 23.3818 17.2164 23.3818 17.2164C23.0306 17.2308 21.9506 17.2799 20.4467 17.3492C18.4842 17.4387 13.0523 17.687 13.0523 17.687C12.5965 17.7158 12.1727 17.7014 12.0624 17.7101C11.7111 17.7274 10.933 17.8487 10.8663 18.5993C10.8053 19.3125 10.6572 20.9928 10.6572 20.9928C10.6572 20.9928 18.9168 20.9928 20.2203 20.9928C22.6764 20.9928 24.6476 20.9928 24.6854 20.9928C25.4518 20.9639 25.8147 20.6492 25.9802 20.424C26.1544 20.1613 26.1892 19.6647 26.1892 19.6647C26.2444 18.9949 26.0557 18.4232 26.0528 18.4117V18.4088Z" fill="#80C342"/>
</g>
<defs>
<clipPath id="clip0_698_1410">
<rect width="162" height="28" fill="white"/>
</clipPath>
</defs>
</svg>
