<svg width="116" height="20" viewBox="0 0 116 20" fill="none" xmlns="http://www.w3.org/2000/svg">
<g clip-path="url(#clip0_4691_68242)">
<path d="M88.2643 8.88024C87.3249 8.88024 86.595 9.0081 85.9189 9.27413C83.3248 10.3053 82.0349 13.475 82.1386 15.9332C82.2444 18.441 83.8535 19.9588 86.4498 19.998C88.0528 20.0227 89.5106 19.4226 90.5619 18.3379C91.8559 17.0015 92.6087 14.9392 92.5257 12.9594C92.4179 10.4043 90.8087 8.87817 88.2643 8.87817V8.88024ZM84.6644 16.1395C84.5047 14.2504 85.4793 10.7652 87.9906 10.5404C88.0424 10.5362 88.0901 10.5362 88.1378 10.5342C89.606 10.5816 89.944 11.918 90.0103 12.7223C90.1659 14.5701 89.1663 18.1296 86.7007 18.3502C86.653 18.3544 86.6095 18.3544 86.5639 18.3564C85.0169 18.3069 84.7183 16.7973 84.6623 16.1395H84.6644Z" fill="#BDBDBD"/>
<path d="M114.578 9.40183C114.105 9.11311 113.477 8.92957 112.811 8.8842C112.674 8.87595 112.535 8.87388 112.394 8.87595C111.635 8.86151 110.839 9.01206 110.045 9.32965C107.714 10.2618 106.115 12.6025 105.97 15.2938C105.897 16.6507 106.268 17.8283 107.044 18.7027C107.751 19.4988 108.773 19.8741 109.844 19.9566C109.844 19.9566 110.049 19.9751 110.372 19.9731C111.065 19.9834 112.643 19.8947 113.763 19.0121C114.341 18.5563 114.513 17.521 114.053 16.9415L114.049 16.9457C114.049 16.9457 114.049 16.9415 114.047 16.9415C114.047 16.9415 112.587 18.1212 110.932 18.1933C110.735 18.1892 110.534 18.1768 110.325 18.1397C108.562 17.8262 108.417 16.1496 108.417 15.6938C108.529 15.6938 108.641 15.6959 108.753 15.6938C111.121 15.698 113.236 15.069 114.42 14.011C115.179 13.3325 115.633 12.7118 115.71 11.5425C115.805 10.0762 114.584 9.40183 114.578 9.39977V9.40183ZM108.579 14.1987C108.948 12.5942 109.978 11.5672 110.374 11.2909C110.982 10.8702 112.346 10.2288 113.184 10.864C113.392 11.0207 113.516 11.3569 113.491 11.6745C113.441 12.2931 112.921 12.9221 112.058 13.4047C110.858 14.075 109.615 14.2028 108.879 14.2111C108.757 14.2111 108.653 14.2049 108.574 14.2008L108.579 14.1987Z" fill="#BDBDBD"/>
<path d="M28.9754 2.64185C28.8199 2.64185 28.6685 2.64185 28.5213 2.64185C26.319 2.64185 24.9649 2.93469 24.9649 2.93469L22.0078 19.6392H23.4822C24.1893 19.6392 24.6746 19.3071 24.8218 18.4719C24.9359 17.8285 25.7902 12.9842 25.8462 12.6748C26.4434 12.7078 26.9909 12.7285 27.6275 12.7264C31.6132 12.7161 34.0041 10.2352 34.4666 7.77486C35.1239 4.27517 32.256 2.67897 28.9713 2.64391L28.9754 2.64185ZM26.1863 10.7693L27.2895 4.52471C27.2895 4.52471 27.7291 4.40922 28.5379 4.40097C28.6664 4.40097 28.8033 4.40716 28.9485 4.41334C30.5514 4.4979 32.283 5.23001 31.7625 7.69237C31.5447 8.72145 30.792 9.73197 29.9065 10.2414C28.6167 10.9838 26.6653 10.8291 26.1842 10.7672L26.1863 10.7693Z" fill="#BDBDBD"/>
<path d="M66.0718 9.01015C64.0333 8.84929 62.87 10.1485 62.1193 11.3426C62.0426 10.5919 61.7979 10.0083 61.3873 9.60202C60.9871 9.20813 60.4292 9.01221 59.7843 8.99777C58.0175 8.96272 56.8791 10.0928 56.0123 11.6375C56.0206 11.5777 56.0309 11.5158 56.0392 11.4581C56.1906 10.3651 56.1305 9.95261 55.7987 9.52366C55.7987 9.52366 55.5001 9.09264 54.6436 9.1277C54.3346 9.11739 53.9427 9.16688 53.4492 9.33805C53.7312 9.65358 53.7312 10.2558 53.4678 12.0933C53.4512 12.2129 52.2361 19.1401 52.2361 19.1401C52.2361 19.1401 52.1573 19.6103 52.6508 19.6103H54.5524C54.5524 19.6103 54.8012 18.1522 54.8468 17.9151C55.0604 16.9479 55.2263 15.9456 55.8298 14.535C57.0698 11.6396 59.0067 10.4476 59.5956 11.1116C59.7947 11.3364 59.8196 11.8953 59.7014 12.6728L58.5608 19.138C58.5608 19.138 58.482 19.6082 58.9756 19.6082H60.8751L61.1198 18.1976C61.5262 15.7765 62.1006 14.4071 62.1006 14.4071C63.1955 11.7942 64.6699 10.6971 65.3003 10.9074C65.4538 10.959 65.7234 11.1054 65.8374 11.5962C65.9017 11.8994 65.9059 12.3964 65.8125 12.9491C65.7109 13.7101 65.2257 15.826 65.0038 17.4139C64.8524 18.507 64.9126 18.9194 65.2444 19.3484C65.2444 19.3484 65.543 19.7794 66.3994 19.7443C66.7084 19.7546 67.1003 19.7051 67.5939 19.534C67.3118 19.2184 67.2786 18.5461 67.5669 16.7664C67.7432 15.6816 67.9941 14.5206 67.9941 14.5206C68.3487 12.8027 68.469 11.3343 68.0957 10.4311C67.6395 9.32774 66.5632 9.04727 66.0759 9.01015H66.0718Z" fill="#BDBDBD"/>
<path d="M101.899 9.01205C99.8817 8.85325 98.6043 10.1154 97.7105 11.6641C97.7209 11.5961 97.7312 11.526 97.7416 11.46C97.893 10.367 97.808 9.86583 97.5011 9.52556C96.9101 8.86975 95.6472 9.16878 95.1516 9.34201C95.4336 9.65754 95.4336 10.2597 95.1702 12.0972C95.135 12.3468 95.0935 12.6128 95.0479 12.8582H95.052L93.9509 19.142C93.9509 19.142 93.8721 19.6122 94.3656 19.6122H96.2631C96.2631 19.6122 96.5119 18.1541 96.5575 17.917C96.7711 16.9498 97.0158 15.9186 97.6068 14.5039C98.8324 11.5713 100.636 10.6763 101.194 10.9238C101.42 11.0248 101.59 11.2517 101.663 11.5981C101.727 11.9013 101.731 12.3983 101.638 12.951C101.536 13.712 101.051 15.8279 100.829 17.4158C100.678 18.5089 100.738 18.9213 101.07 19.3503C101.07 19.3503 101.369 19.7813 102.225 19.7462C102.534 19.7565 102.926 19.707 103.419 19.5359C103.137 19.2203 103.104 18.548 103.392 16.7683C103.569 15.6835 103.82 14.5225 103.82 14.5225C104.174 12.8046 104.303 11.3321 103.921 10.433C103.455 9.3317 102.337 9.04711 101.901 9.01411L101.899 9.01205Z" fill="#BDBDBD"/>
<path d="M43.6986 9.41852C42.9894 9.46182 42.108 9.53813 42.108 9.53813L41.8924 10.7796C41.8239 11.1632 41.7389 11.5818 41.6539 11.9943C41.4776 12.6831 41.2433 13.4441 40.8493 14.3659C39.6092 17.2614 37.9503 18.1028 37.3261 17.9687C37.1208 17.9254 36.9031 17.7501 36.7932 17.2717C36.7289 16.9685 36.7247 16.4715 36.8181 15.9188C36.9197 15.1578 37.4049 13.0419 37.6289 11.454C37.7802 10.361 37.7201 9.94852 37.3883 9.51957C37.3883 9.51957 37.0897 9.08855 36.2333 9.12361C35.9243 9.1133 35.5324 9.16279 35.0388 9.33396C35.3208 9.64949 35.354 10.3218 35.0658 12.1015C34.8895 13.1863 34.8066 13.4214 34.6386 14.3474C34.4478 15.4012 34.2508 16.5293 34.3275 17.5666C34.425 18.8514 35.3188 19.732 36.5568 19.8557C38.5102 20.0516 39.8477 18.7483 40.7373 17.2469C40.729 17.3006 40.7207 17.3562 40.7124 17.4078C40.5611 18.5008 40.6212 18.9133 40.953 19.3422C40.953 19.3422 41.2516 19.7732 42.108 19.7382C42.417 19.7485 42.8089 19.699 43.3025 19.5278C43.0205 19.2123 43.0205 18.6101 43.2838 16.7726C43.3191 16.5231 43.3606 16.257 43.4062 16.0116H43.402L44.0967 12.0046L44.4098 10.2372C44.4907 9.79179 44.3393 9.37933 43.6965 9.41852H43.6986Z" fill="#BDBDBD"/>
<path d="M80.0218 9.41852C79.3126 9.46182 78.4313 9.53813 78.4313 9.53813L78.2156 10.7796C78.1472 11.1632 78.0622 11.5818 77.9772 11.9943C77.8009 12.6831 77.5666 13.4441 77.1726 14.3659C75.9325 17.2614 74.2735 18.1028 73.6494 17.9687C73.4441 17.9254 73.2263 17.7501 73.1164 17.2717C73.0521 16.9685 73.048 16.4715 73.1413 15.9188C73.2429 15.1578 73.7282 13.0419 73.9521 11.454C74.1035 10.361 74.0434 9.94852 73.7116 9.51957C73.7116 9.51957 73.413 9.08855 72.5565 9.12361C72.2475 9.1133 71.8556 9.16279 71.3621 9.33396C71.6441 9.64949 71.6773 10.3218 71.389 12.1015C71.2128 13.1863 71.1298 13.4214 70.9618 14.3474C70.7711 15.4012 70.5741 16.5293 70.6508 17.5666C70.7483 18.8514 71.642 19.732 72.88 19.8557C74.8334 20.0516 76.171 18.7483 77.0606 17.2469C77.0523 17.3006 77.044 17.3562 77.0357 17.4078C76.8843 18.5008 76.9445 18.9133 77.2763 19.3422C77.2763 19.3422 77.5749 19.7732 78.4313 19.7382C78.7403 19.7485 79.1322 19.699 79.6258 19.5278C79.3437 19.2123 79.3437 18.6101 79.6071 16.7726C79.6424 16.5231 79.6838 16.257 79.7295 16.0116H79.7253L80.42 12.0046L80.7331 10.2372C80.814 9.79179 80.6626 9.37933 80.0198 9.41852H80.0218Z" fill="#BDBDBD"/>
<path d="M51.1638 2.49536C51.1057 2.49536 51.0373 2.49949 50.9564 2.51598L49.0424 2.90988L46.4358 17.6036C46.3052 18.443 46.3549 18.7791 46.5187 19.1091C46.6784 19.3937 46.9293 19.5566 47.2031 19.6453C47.4975 19.7381 47.8024 19.7587 48.0678 19.7525C48.5717 19.767 48.9781 19.6556 48.9781 19.6556C48.9781 19.6556 48.7189 18.8492 48.9346 17.5789L51.4666 3.29346C51.5391 2.88513 51.5806 2.49536 51.1659 2.49742L51.1638 2.49536Z" fill="#BDBDBD"/>
<path d="M7.17706 5.09584L7.37821 2.82114C7.4653 1.78588 7.52544 1.05995 7.53581 0.907344C7.54203 0.820728 7.53581 0.734112 7.51715 0.655746C7.46945 0.445393 7.32222 0.315469 7.32222 0.315469C7.14803 0.140175 6.72914 -0.113485 5.83953 0.0514974C5.80842 0.0576843 5.47041 0.123677 5.17802 0.296909C5.07641 0.358777 4.84 0.517573 4.71558 0.73205C4.64093 0.868161 4.50821 1.1775 4.45845 1.7137L4.26766 4.96179L4.10799 7.55614C4.10799 7.55614 3.99808 9.19153 3.95868 9.66379C3.87988 10.5444 3.78657 11.6828 3.69325 12.8913C3.69325 12.8913 1.41633 12.9964 1.05966 13.0129C0.893763 13.0232 0.0124422 13.0975 0 13.6357C0 13.6667 0.0020737 13.6997 0.00622109 13.7347C0.0518424 14.1163 0.236401 14.3782 0.470729 14.5576C0.524645 14.5988 0.605519 14.6483 0.624182 14.6607C1.20274 15.0092 2.03015 14.9927 2.03015 14.9927C2.03015 14.9927 2.60871 14.9927 3.54395 14.9927L3.32413 18.148C3.31169 18.3687 3.29925 18.579 3.28888 18.7749C3.27229 19.0987 3.26192 19.4596 3.38012 19.6658C3.47137 19.8267 3.61652 19.8515 3.75131 19.868C4.29877 19.9339 4.91466 19.9608 5.38746 19.2781C5.81257 18.6636 5.95773 17.9665 6.08422 17.0509C6.11325 16.8426 6.16717 16.3559 6.22731 15.8135L6.8743 8.51303C6.97176 7.7005 7.56691 7.58295 7.79502 7.56851C7.79502 7.56851 7.86967 7.56439 7.96506 7.56851L7.17499 5.09584H7.17706Z" fill="#BDBDBD"/>
<path d="M17.6555 5.57855C17.3092 5.56205 16.3781 5.51875 15.1318 5.461L15.3889 1.75096C15.4014 1.53029 15.4138 1.31994 15.4242 1.12402C15.4408 0.800247 15.4511 0.439348 15.3329 0.233119C15.2417 0.0722615 15.0965 0.0475141 14.9617 0.0310159C14.4143 -0.0349771 13.7984 -0.0617868 13.3256 0.620828C12.9005 1.23539 12.7553 1.93244 12.6288 2.84809C12.5998 3.05638 12.5459 3.54308 12.4857 4.08546L12.3758 5.33314C8.10816 5.13722 2.75803 4.89181 2.0115 4.85882C2.0115 4.85882 1.58224 4.8485 1.31888 4.87325C0.549543 4.98049 0.234342 5.39295 0.103699 5.71054C0.101625 5.71672 -0.0331651 6.12506 0.00623509 6.60557C0.00623509 6.60557 0.0311194 6.95822 0.155541 7.14795C0.273742 7.31087 0.532954 7.53359 1.08041 7.55422C1.13225 7.55422 4.00847 7.55422 7.27868 7.55422C7.27868 7.55422 9.11183 7.58103 9.14294 7.58309C9.14294 7.58309 12.2846 7.56865 12.3053 10.031C12.3053 10.031 12.382 11.9428 10.2461 12.4913C10.2461 12.4913 9.90191 12.5986 9.32335 12.6295L11.5215 14.9887L11.3369 17.0737C11.2498 18.109 11.1897 18.8349 11.1793 18.9875C11.1731 19.0741 11.1793 19.1607 11.198 19.2391C11.2457 19.4495 11.3929 19.5794 11.3929 19.5794C11.5671 19.7547 11.986 20.0083 12.8756 19.8433C12.9067 19.8372 13.2447 19.7712 13.5371 19.5979C13.6387 19.5361 13.8751 19.3773 13.9995 19.1628C14.0742 19.0267 14.2069 18.7173 14.2567 18.1812L14.4433 14.9887L14.6071 12.3387C14.6631 11.4684 14.717 10.7054 14.7564 10.2311C14.8228 9.48451 14.8995 8.55442 14.9783 7.55215H16.6829C16.6829 7.55215 17.5103 7.56659 18.0889 7.22013C18.1075 7.20775 18.1884 7.15826 18.2423 7.11701C18.4766 6.93759 18.6591 6.67569 18.7068 6.29416C18.711 6.2591 18.713 6.22611 18.713 6.19517C18.7027 5.65692 17.8214 5.58268 17.6534 5.57236L17.6555 5.57855Z" fill="#BDBDBD"/>
<path d="M18.6091 13.149C18.4805 12.8314 18.1653 12.419 17.3939 12.3117C17.1285 12.287 16.7013 12.2973 16.7013 12.2973C16.4504 12.3076 15.679 12.3427 14.6048 12.3922C13.203 12.4561 9.3231 12.6334 9.3231 12.6334C8.99753 12.6541 8.69477 12.6438 8.61597 12.6499C8.36506 12.6623 7.80931 12.7489 7.76161 13.2851C7.71806 13.7945 7.6123 14.9948 7.6123 14.9948C7.6123 14.9948 13.512 14.9948 14.4431 14.9948C16.1974 14.9948 17.6054 14.9948 17.6324 14.9948C18.1799 14.9741 18.4391 14.7494 18.5573 14.5885C18.6817 14.4008 18.7066 14.0461 18.7066 14.0461C18.746 13.5677 18.6112 13.1593 18.6091 13.1511V13.149Z" fill="#BDBDBD"/>
</g>
<defs>
<clipPath id="clip0_4691_68242">
<rect width="115.714" height="20" fill="white"/>
</clipPath>
</defs>
</svg>
